<svg width="670" height="222" viewBox="1320 464 670 222" fill="none" xmlns="http://www.w3.org/2000/svg">
<path d="M40 42C40 40.8954 40.8954 40 42 40H2191C2192.1 40 2193 40.8954 2193 42V1109C2193 1110.1 2192.1 1111 2191 1111H42C40.8954 1111 40 1110.1 40 1109V42Z" fill="white"/>
<path d="M42 40V41H2191V40V39H42V40ZM2193 42H2192V1109H2193H2194V42H2193ZM2191 1111V1110H42V1111V1112H2191V1111ZM40 1109H41V42H40H39V1109H40ZM42 1111V1110C41.4477 1110 41 1109.55 41 1109H40H39C39 1110.66 40.3432 1112 42 1112V1111ZM2193 1109H2192C2192 1109.55 2191.55 1110 2191 1110V1111V1112C2192.66 1112 2194 1110.66 2194 1109H2193ZM2191 40V41C2191.55 41 2192 41.4477 2192 42H2193H2194C2194 40.3431 2192.66 39 2191 39V40ZM42 40V39C40.3431 39 39 40.3431 39 42H40H41C41 41.4477 41.4477 41 42 41V40Z" fill="black" fill-opacity="0.1"/>
<rect x="1117" y="40" width="1076" height="1071" fill="#1A1A1A"/>
<g clip-path="url(#clip0_28_2)">
<path d="M1337.25 589.276H1323.52V532.874H1340.34L1349.5 562.986L1358.67 532.874H1375.49V589.276H1361.85V553.448L1354.81 577.079H1344.23L1337.28 553.632V589.276H1337.25Z" fill="#00B294"/>
<path d="M1382.5 532.874H1397.91V589.276H1382.5V532.874Z" fill="#00B294"/>
<path d="M1442.8 553.968H1427.39V544.919C1427.39 543.635 1426.65 542.993 1425.18 542.993H1422.09C1420.62 542.993 1419.88 543.635 1419.88 544.919V577.232C1419.88 578.516 1420.62 579.158 1422.09 579.158H1425.18C1426.65 579.158 1427.39 578.516 1427.39 577.232V568.55H1442.8V578.393C1442.8 585.669 1438.48 589.276 1429.87 589.276H1417.46C1408.82 589.276 1404.53 585.638 1404.53 578.393V543.788C1404.53 536.543 1408.85 532.905 1417.46 532.905H1429.87C1438.51 532.905 1442.8 536.543 1442.8 543.788V553.968Z" fill="#00B294"/>
<path d="M1463.91 569.253V589.276H1448.5V532.874H1474.63C1483.27 532.874 1487.56 536.512 1487.56 543.757V558.339C1487.56 563.903 1485.05 567.327 1479.99 568.611L1490.38 589.246H1473.84L1464.86 569.222H1463.88L1463.91 569.253ZM1470.01 543.849H1463.94V558.767H1470.01C1471.48 558.767 1472.21 558.125 1472.21 556.841V545.775C1472.21 544.491 1471.48 543.849 1470.01 543.849Z" fill="#00B294"/>
<path d="M1506.43 532.874H1519.46C1528.1 532.874 1532.39 536.512 1532.39 543.757V578.363C1532.39 585.638 1528.07 589.246 1519.46 589.246H1506.43C1497.79 589.246 1493.51 585.608 1493.51 578.363V543.757C1493.51 536.512 1497.83 532.874 1506.43 532.874ZM1517 576.345V545.775C1517 544.491 1516.27 543.849 1514.8 543.849H1511.09C1509.62 543.849 1508.89 544.491 1508.89 545.775V576.345C1508.89 577.629 1509.62 578.271 1511.09 578.271H1514.8C1516.27 578.271 1517 577.629 1517 576.345Z" fill="#00B294"/>
<path d="M1560.85 576.345V568.366C1560.85 567.082 1560.11 566.44 1558.64 566.44H1550.19C1545.84 566.44 1542.77 565.493 1540.99 563.597C1539.22 561.702 1538.3 558.951 1538.3 555.374V543.788C1538.3 536.543 1542.59 532.905 1551.14 532.905H1563.21C1571.79 532.905 1576.04 536.543 1576.04 543.788V550.544H1560.63V545.806C1560.63 544.522 1559.9 543.88 1558.43 543.88H1555.88C1554.41 543.88 1553.68 544.522 1553.68 545.806V554.151C1553.68 555.435 1554.41 556.077 1555.88 556.077H1564.16C1568.51 556.077 1571.6 556.994 1573.44 558.798C1575.28 560.601 1576.23 563.292 1576.23 566.777V578.363C1576.23 585.638 1571.94 589.246 1563.39 589.246H1551.41C1542.77 589.246 1538.48 585.608 1538.48 578.363V571.607H1553.89V576.345C1553.89 577.629 1554.63 578.271 1556.1 578.271H1558.64C1560.11 578.271 1560.85 577.629 1560.85 576.345Z" fill="#00B294"/>
<path d="M1595.07 532.874H1608.09C1616.73 532.874 1621.02 536.512 1621.02 543.757V578.363C1621.02 585.638 1616.7 589.246 1608.09 589.246H1595.07C1586.43 589.246 1582.14 585.608 1582.14 578.363V543.757C1582.14 536.512 1586.46 532.874 1595.07 532.874ZM1605.64 576.345V545.775C1605.64 544.491 1604.91 543.849 1603.44 543.849H1599.73C1598.26 543.849 1597.52 544.491 1597.52 545.775V576.345C1597.52 577.629 1598.26 578.271 1599.73 578.271H1603.44C1604.91 578.271 1605.64 577.629 1605.64 576.345Z" fill="#00B294"/>
<path d="M1661.71 543.849H1643.23V557.544H1659.26V567.633H1643.23V589.246H1627.82V532.844H1661.71V543.819V543.849Z" fill="#00B294"/>
<path d="M1700.62 532.874V543.849H1689.71V589.246H1674.3V543.849H1663.49V532.874H1700.62Z" fill="#00B294"/>
<path d="M1756.08 543.849H1737.6V557.544H1753.62V567.633H1737.6V589.246H1722.19V532.844H1756.08V543.819V543.849Z" fill="#00B294"/>
<path d="M1789.72 589.276L1787.97 580.839H1774.43L1772.59 589.276H1757.45L1771.98 532.874H1790.73L1805.25 589.276H1789.75H1789.72ZM1776.76 569.956H1785.55L1781.23 549.657L1776.73 569.956H1776.76Z" fill="#00B294"/>
<path d="M1808.71 532.874H1834.6C1843.24 532.874 1847.53 536.512 1847.53 543.757V550.972C1847.53 556.077 1846.12 559.379 1843.3 560.907C1844.96 561.61 1846.06 562.68 1846.64 564.117C1847.23 565.554 1847.53 567.51 1847.53 569.956V578.393C1847.53 585.669 1843.21 589.276 1834.6 589.276H1808.71V532.874ZM1832.4 554.059V544.919C1832.4 543.635 1831.66 542.993 1830.19 542.993H1823.85V555.985H1830.19C1831.66 555.985 1832.4 555.343 1832.4 554.059ZM1832.4 577.232V567.999C1832.4 566.716 1831.66 566.074 1830.19 566.074H1823.85V579.158H1830.19C1831.66 579.158 1832.4 578.516 1832.4 577.232Z" fill="#00B294"/>
<path d="M1869.53 569.253V589.276H1854.12V532.874H1880.25C1888.89 532.874 1893.18 536.512 1893.18 543.757V558.339C1893.18 563.903 1890.67 567.327 1885.62 568.611L1896 589.246H1879.46L1870.48 569.222H1869.5L1869.53 569.253ZM1875.63 543.849H1869.56V558.767H1875.63C1877.1 558.767 1877.83 558.125 1877.83 556.841V545.775C1877.83 544.491 1877.1 543.849 1875.63 543.849Z" fill="#00B294"/>
<path d="M1899.37 532.874H1914.78V589.276H1899.37V532.874Z" fill="#00B294"/>
<path d="M1959.67 553.968H1944.26V544.919C1944.26 543.635 1943.52 542.993 1942.05 542.993H1938.96C1937.49 542.993 1936.75 543.635 1936.75 544.919V577.232C1936.75 578.516 1937.49 579.158 1938.96 579.158H1942.05C1943.52 579.158 1944.26 578.516 1944.26 577.232V568.55H1959.67V578.393C1959.67 585.669 1955.35 589.276 1946.74 589.276H1934.33C1925.69 589.276 1921.4 585.638 1921.4 578.393V543.788C1921.4 536.543 1925.72 532.905 1934.33 532.905H1946.74C1955.38 532.905 1959.67 536.543 1959.67 543.788V553.968Z" fill="#00B294"/>
<path d="M1352.29 520.402L1350.55 511.964H1337L1335.17 520.402H1320L1334.52 464H1353.27L1367.8 520.402H1352.29ZM1339.36 501.051H1348.16L1343.84 480.752L1339.33 501.051H1339.36Z" fill="#00B294"/>
<path d="M1371.32 464H1397.45C1406.09 464 1410.38 467.638 1410.38 474.883V491.055C1410.38 498.33 1406.06 501.937 1397.45 501.937H1386.7V520.371H1371.29V464H1371.32ZM1395 489.037V476.931C1395 475.647 1394.27 475.005 1392.8 475.005H1386.73V490.993H1392.8C1394.27 490.993 1395 490.351 1395 489.067V489.037Z" fill="#00B294"/>
<path d="M1444.48 520.402L1442.74 511.964H1429.2L1427.36 520.402H1412.22L1426.68 464H1445.43L1459.96 520.402H1444.45H1444.48ZM1431.52 501.051H1440.32L1436 480.752L1431.49 501.051H1431.52Z" fill="#00B294"/>
<path d="M1501.35 485.093H1485.94V476.045C1485.94 474.761 1485.2 474.119 1483.73 474.119H1480.64C1479.17 474.119 1478.43 474.761 1478.43 476.045V508.357C1478.43 509.641 1479.17 510.283 1480.64 510.283H1483.73C1485.2 510.283 1485.94 509.641 1485.94 508.357V499.675H1501.35V509.519C1501.35 516.795 1497.03 520.402 1488.42 520.402H1476.01C1467.37 520.402 1463.08 516.764 1463.08 509.519V474.883C1463.08 467.638 1467.4 464 1476.01 464H1488.42C1497.06 464 1501.35 467.638 1501.35 474.883V485.063V485.093Z" fill="#00B294"/>
<path d="M1337.25 658.151H1323.52V601.749H1340.34L1349.5 631.86L1358.67 601.749H1375.49V658.151H1361.85V622.323L1354.81 645.953H1344.23L1337.28 622.506V658.151H1337.25Z" fill="#1360A8"/>
<path d="M1382.5 601.749H1397.91V658.151H1382.5V601.749Z" fill="#1360A8"/>
<path d="M1442.8 622.842H1427.39V613.793C1427.39 612.51 1426.65 611.868 1425.18 611.868H1422.09C1420.62 611.868 1419.88 612.51 1419.88 613.793V646.106C1419.88 647.39 1420.62 648.032 1422.09 648.032H1425.18C1426.65 648.032 1427.39 647.39 1427.39 646.106V637.424H1442.8V647.268C1442.8 654.543 1438.48 658.151 1429.87 658.151H1417.46C1408.82 658.151 1404.53 654.513 1404.53 647.268V612.662C1404.53 605.417 1408.85 601.779 1417.46 601.779H1429.87C1438.51 601.779 1442.8 605.417 1442.8 612.662V622.842Z" fill="#1360A8"/>
<path d="M1463.91 638.127V658.151H1448.5V601.749H1474.63C1483.27 601.749 1487.56 605.387 1487.56 612.632V627.214C1487.56 632.777 1485.05 636.201 1479.99 637.485L1490.38 658.12H1473.84L1464.86 638.097H1463.88L1463.91 638.127ZM1470.01 612.754H1463.94V627.672H1470.01C1471.48 627.672 1472.21 627.03 1472.21 625.746V614.68C1472.21 613.396 1471.48 612.754 1470.01 612.754Z" fill="#1360A8"/>
<path d="M1506.43 601.749H1519.46C1528.1 601.749 1532.39 605.387 1532.39 612.632V647.237C1532.39 654.513 1528.07 658.12 1519.46 658.12H1506.43C1497.79 658.12 1493.51 654.482 1493.51 647.237V612.632C1493.51 605.387 1497.83 601.749 1506.43 601.749ZM1517 645.25V614.68C1517 613.396 1516.27 612.754 1514.8 612.754H1511.09C1509.62 612.754 1508.89 613.396 1508.89 614.68V645.25C1508.89 646.534 1509.62 647.176 1511.09 647.176H1514.8C1516.27 647.176 1517 646.534 1517 645.25Z" fill="#1360A8"/>
<path d="M1560.85 645.25V637.271C1560.85 635.987 1560.11 635.345 1558.64 635.345H1550.19C1545.84 635.345 1542.77 634.398 1540.99 632.502C1539.22 630.607 1538.3 627.856 1538.3 624.279V612.693C1538.3 605.448 1542.59 601.81 1551.14 601.81H1563.21C1571.79 601.81 1576.04 605.448 1576.04 612.693V619.449H1560.63V614.711C1560.63 613.427 1559.9 612.785 1558.43 612.785H1555.88C1554.41 612.785 1553.68 613.427 1553.68 614.711V623.056C1553.68 624.34 1554.41 624.982 1555.88 624.982H1564.16C1568.51 624.982 1571.6 625.899 1573.44 627.703C1575.28 629.507 1576.23 632.197 1576.23 635.682V647.268C1576.23 654.543 1571.94 658.151 1563.39 658.151H1551.41C1542.77 658.151 1538.48 654.513 1538.48 647.268V640.512H1553.89V645.25C1553.89 646.534 1554.63 647.176 1556.1 647.176H1558.64C1560.11 647.176 1560.85 646.534 1560.85 645.25Z" fill="#1360A8"/>
<path d="M1595.07 601.749H1608.09C1616.73 601.749 1621.02 605.387 1621.02 612.632V647.237C1621.02 654.513 1616.7 658.12 1608.09 658.12H1595.07C1586.43 658.12 1582.14 654.482 1582.14 647.237V612.632C1582.14 605.387 1586.46 601.749 1595.07 601.749ZM1605.64 645.25V614.68C1605.64 613.396 1604.91 612.754 1603.44 612.754H1599.73C1598.26 612.754 1597.52 613.396 1597.52 614.68V645.25C1597.52 646.534 1598.26 647.176 1599.73 647.176H1603.44C1604.91 647.176 1605.64 646.534 1605.64 645.25Z" fill="#1360A8"/>
<path d="M1661.71 612.754H1643.23V626.449H1659.26V636.538H1643.23V658.151H1627.82V601.749H1661.71V612.724V612.754Z" fill="#1360A8"/>
<path d="M1700.62 601.749V612.724H1689.71V658.12H1674.3V612.724H1663.49V601.749H1700.62Z" fill="#1360A8"/>
<path d="M1743.85 645.25V637.271C1743.85 635.987 1743.12 635.345 1741.65 635.345H1733.19C1728.84 635.345 1725.77 634.398 1724 632.502C1722.22 630.607 1721.3 627.856 1721.3 624.279V612.693C1721.3 605.448 1725.59 601.81 1734.14 601.81H1746.21C1754.79 601.81 1759.05 605.448 1759.05 612.693V619.449H1743.64V614.711C1743.64 613.427 1742.9 612.785 1741.43 612.785H1738.89C1737.42 612.785 1736.68 613.427 1736.68 614.711V623.056C1736.68 624.34 1737.42 624.982 1738.89 624.982H1747.16C1751.51 624.982 1754.61 625.899 1756.44 627.703C1758.28 629.507 1759.23 632.197 1759.23 635.682V647.268C1759.23 654.543 1754.94 658.151 1746.39 658.151H1734.41C1725.77 658.151 1721.49 654.513 1721.49 647.268V640.512H1736.9V645.25C1736.9 646.534 1737.63 647.176 1739.1 647.176H1741.65C1743.12 647.176 1743.85 646.534 1743.85 645.25Z" fill="#1360A8"/>
<path d="M1778.07 658.151C1769.43 658.151 1765.15 654.513 1765.15 647.268V612.662C1765.15 605.417 1769.47 601.779 1778.07 601.779H1791.1C1799.74 601.779 1804.03 605.417 1804.03 612.662V647.268C1804.03 650.906 1802.95 653.626 1800.78 655.43L1808.96 664.112H1791.43L1785.89 658.151H1778.04H1778.07ZM1780.56 614.68V645.25C1780.56 646.534 1781.29 647.176 1782.76 647.176H1786.47C1787.94 647.176 1788.68 646.534 1788.68 645.25V614.68C1788.68 613.396 1787.94 612.754 1786.47 612.754H1782.76C1781.29 612.754 1780.56 613.396 1780.56 614.68Z" fill="#1360A8"/>
<path d="M1826.24 647.176H1843.76V658.151H1810.83V601.749H1826.24V647.145V647.176Z" fill="#1360A8"/>
<mask id="mask0_28_2" style="mask-type:luminance" maskUnits="userSpaceOnUse" x="1969" y="570" width="21" height="20">
<path d="M1990 577.201V582.49H1983.23V589.032H1976.34V582.49H1969.56V577.201H1976.34V570.659H1983.23V577.201H1990Z" fill="white"/>
</mask>
<g mask="url(#mask0_28_2)">
<path d="M1969.78 570.659H1969.53V589.032H1969.78V570.659Z" fill="#00B294"/>
<path d="M1970.02 570.659H1969.78V589.032H1970.02V570.659Z" fill="#00B194"/>
<path d="M1970.3 570.659H1970.05V589.032H1970.3V570.659Z" fill="#00B094"/>
<path d="M1970.55 570.659H1970.3V589.032H1970.55V570.659Z" fill="#01AF95"/>
<path d="M1970.79 570.659H1970.54V589.032H1970.79V570.659Z" fill="#01AE95"/>
<path d="M1971.04 570.659H1970.79V589.032H1971.04V570.659Z" fill="#01AD95"/>
<path d="M1971.28 570.659H1971.03V589.032H1971.28V570.659Z" fill="#01AC95"/>
<path d="M1971.53 570.659H1971.28V589.032H1971.53V570.659Z" fill="#02AB96"/>
<path d="M1971.77 570.659H1971.53V589.032H1971.77V570.659Z" fill="#02AA96"/>
<path d="M1972.02 570.659H1971.77V589.032H1972.02V570.659Z" fill="#02A996"/>
<path d="M1972.29 570.659H1972.05V589.032H1972.29V570.659Z" fill="#02A896"/>
<path d="M1972.54 570.659H1972.29V589.032H1972.54V570.659Z" fill="#03A797"/>
<path d="M1972.78 570.659H1972.54V589.032H1972.78V570.659Z" fill="#03A697"/>
<path d="M1973.03 570.659H1972.78V589.032H1973.03V570.659Z" fill="#03A597"/>
<path d="M1973.27 570.659H1973.03V589.032H1973.27V570.659Z" fill="#03A497"/>
<path d="M1973.52 570.659H1973.27V589.032H1973.52V570.659Z" fill="#04A398"/>
<path d="M1973.76 570.659H1973.52V589.032H1973.76V570.659Z" fill="#04A298"/>
<path d="M1974.01 570.659H1973.76V589.032H1974.01V570.659Z" fill="#04A198"/>
<path d="M1974.28 570.659H1974.04V589.032H1974.28V570.659Z" fill="#04A098"/>
<path d="M1974.53 570.659H1974.28V589.032H1974.53V570.659Z" fill="#049F99"/>
<path d="M1974.77 570.659H1974.53V589.032H1974.77V570.659Z" fill="#059E99"/>
<path d="M1975.02 570.659H1974.77V589.032H1975.02V570.659Z" fill="#059D99"/>
<path d="M1975.26 570.659H1975.02V589.032H1975.26V570.659Z" fill="#059C99"/>
<path d="M1975.51 570.659H1975.26V589.032H1975.51V570.659Z" fill="#059B9A"/>
<path d="M1975.75 570.659H1975.51V589.032H1975.75V570.659Z" fill="#069A9A"/>
<path d="M1976.03 570.659H1975.78V589.032H1976.03V570.659Z" fill="#06999A"/>
<path d="M1976.27 570.659H1976.03V589.032H1976.27V570.659Z" fill="#06989A"/>
<path d="M1976.52 570.659H1976.27V589.032H1976.52V570.659Z" fill="#06979B"/>
<path d="M1976.76 570.659H1976.52V589.032H1976.76V570.659Z" fill="#07969B"/>
<path d="M1977.01 570.659H1976.76V589.032H1977.01V570.659Z" fill="#07959B"/>
<path d="M1977.26 570.659H1977.01V589.032H1977.26V570.659Z" fill="#07949B"/>
<path d="M1977.5 570.659H1977.25V589.032H1977.5V570.659Z" fill="#07939C"/>
<path d="M1977.75 570.659H1977.5V589.032H1977.75V570.659Z" fill="#08929C"/>
<path d="M1978.02 570.659H1977.78V589.032H1978.02V570.659Z" fill="#08919C"/>
<path d="M1978.27 570.659H1978.02V589.032H1978.27V570.659Z" fill="#08909C"/>
<path d="M1978.51 570.659H1978.27V589.032H1978.51V570.659Z" fill="#088F9D"/>
<path d="M1978.76 570.659H1978.51V589.032H1978.76V570.659Z" fill="#088E9D"/>
<path d="M1979 570.659H1978.76V589.032H1979V570.659Z" fill="#098D9D"/>
<path d="M1979.25 570.659H1979V589.032H1979.25V570.659Z" fill="#098C9D"/>
<path d="M1979.49 570.659H1979.25V589.032H1979.49V570.659Z" fill="#098B9E"/>
<path d="M1979.74 570.659H1979.49V589.032H1979.74V570.659Z" fill="#098A9E"/>
<path d="M1980.01 570.659H1979.77V589.032H1980.01V570.659Z" fill="#0A889E"/>
<path d="M1980.26 570.659H1980.01V589.032H1980.26V570.659Z" fill="#0A879E"/>
<path d="M1980.5 570.659H1980.26V589.032H1980.5V570.659Z" fill="#0A869F"/>
<path d="M1980.75 570.659H1980.5V589.032H1980.75V570.659Z" fill="#0A859F"/>
<path d="M1980.99 570.659H1980.75V589.032H1980.99V570.659Z" fill="#0B849F"/>
<path d="M1981.24 570.659H1980.99V589.032H1981.24V570.659Z" fill="#0B839F"/>
<path d="M1981.48 570.659H1981.24V589.032H1981.48V570.659Z" fill="#0B82A0"/>
<path d="M1981.73 570.659H1981.48V589.032H1981.73V570.659Z" fill="#0B81A0"/>
<path d="M1982 570.659H1981.76V589.032H1982V570.659Z" fill="#0B80A0"/>
<path d="M1982.25 570.659H1982V589.032H1982.25V570.659Z" fill="#0C7FA0"/>
<path d="M1982.49 570.659H1982.25V589.032H1982.49V570.659Z" fill="#0C7EA1"/>
<path d="M1982.74 570.659H1982.49V589.032H1982.74V570.659Z" fill="#0C7DA1"/>
<path d="M1982.98 570.659H1982.74V589.032H1982.98V570.659Z" fill="#0C7CA1"/>
<path d="M1983.23 570.659H1982.98V589.032H1983.23V570.659Z" fill="#0D7BA1"/>
<path d="M1983.47 570.659H1983.23V589.032H1983.47V570.659Z" fill="#0D7AA2"/>
<path d="M1983.75 570.659H1983.5V589.032H1983.75V570.659Z" fill="#0D79A2"/>
<path d="M1984 570.659H1983.75V589.032H1984V570.659Z" fill="#0D78A2"/>
<path d="M1984.24 570.659H1983.99V589.032H1984.24V570.659Z" fill="#0E77A2"/>
<path d="M1984.49 570.659H1984.24V589.032H1984.49V570.659Z" fill="#0E76A3"/>
<path d="M1984.73 570.659H1984.48V589.032H1984.73V570.659Z" fill="#0E75A3"/>
<path d="M1984.98 570.659H1984.73V589.032H1984.98V570.659Z" fill="#0E74A3"/>
<path d="M1985.22 570.659H1984.98V589.032H1985.22V570.659Z" fill="#0F73A3"/>
<path d="M1985.47 570.659H1985.22V589.032H1985.47V570.659Z" fill="#0F72A4"/>
<path d="M1985.74 570.659H1985.5V589.032H1985.74V570.659Z" fill="#0F71A4"/>
<path d="M1985.99 570.659H1985.74V589.032H1985.99V570.659Z" fill="#0F70A4"/>
<path d="M1986.23 570.659H1985.99V589.032H1986.23V570.659Z" fill="#0F6FA4"/>
<path d="M1986.48 570.659H1986.23V589.032H1986.48V570.659Z" fill="#106EA5"/>
<path d="M1986.72 570.659H1986.48V589.032H1986.72V570.659Z" fill="#106DA5"/>
<path d="M1986.97 570.659H1986.72V589.032H1986.97V570.659Z" fill="#106CA5"/>
<path d="M1987.21 570.659H1986.97V589.032H1987.21V570.659Z" fill="#106BA5"/>
<path d="M1987.46 570.659H1987.21V589.032H1987.46V570.659Z" fill="#116AA6"/>
<path d="M1987.73 570.659H1987.49V589.032H1987.73V570.659Z" fill="#1169A6"/>
<path d="M1987.98 570.659H1987.73V589.032H1987.98V570.659Z" fill="#1168A6"/>
<path d="M1988.22 570.659H1987.98V589.032H1988.22V570.659Z" fill="#1167A6"/>
<path d="M1988.47 570.659H1988.22V589.032H1988.47V570.659Z" fill="#1266A7"/>
<path d="M1988.71 570.659H1988.47V589.032H1988.71V570.659Z" fill="#1265A7"/>
<path d="M1988.96 570.659H1988.71V589.032H1988.96V570.659Z" fill="#1264A7"/>
<path d="M1989.2 570.659H1988.96V589.032H1989.2V570.659Z" fill="#1263A7"/>
<path d="M1989.45 570.659H1989.2V589.032H1989.45V570.659Z" fill="#1362A8"/>
<path d="M1989.72 570.659H1989.48V589.032H1989.72V570.659Z" fill="#1361A8"/>
<path d="M1989.97 570.659H1989.72V589.032H1989.97V570.659Z" fill="#1360A8"/>
</g>
<path d="M1336.79 675.912H1334.06C1333.97 675.453 1333.85 675.056 1333.63 674.72C1333.42 674.383 1333.17 674.078 1332.87 673.833C1332.56 673.589 1332.19 673.405 1331.8 673.283C1331.4 673.161 1330.97 673.099 1330.51 673.099C1329.71 673.099 1328.98 673.313 1328.36 673.711C1327.75 674.108 1327.26 674.72 1326.89 675.484C1326.53 676.248 1326.37 677.196 1326.37 678.327C1326.37 679.458 1326.56 680.436 1326.89 681.2C1327.26 681.965 1327.75 682.576 1328.36 682.974C1328.98 683.371 1329.71 683.554 1330.51 683.554C1331.31 683.554 1331.37 683.493 1331.77 683.371C1332.16 683.249 1332.5 683.065 1332.81 682.851C1333.11 682.607 1333.39 682.332 1333.6 681.995C1333.82 681.659 1333.97 681.262 1334.06 680.834H1336.79C1336.7 681.567 1336.48 682.209 1336.12 682.851C1335.75 683.493 1335.35 684.013 1334.8 684.502C1334.25 684.991 1333.6 685.358 1332.9 685.603C1332.19 685.847 1331.37 686 1330.48 686C1329.16 686 1328 685.694 1326.95 685.083C1325.91 684.471 1325.12 683.616 1324.53 682.454C1323.95 681.323 1323.65 679.947 1323.65 678.327C1323.65 676.707 1323.95 675.362 1324.53 674.2C1325.12 673.069 1325.94 672.182 1326.99 671.571C1328.03 670.96 1329.19 670.654 1330.48 670.654C1331.77 670.654 1332.07 670.776 1332.81 670.99C1333.51 671.235 1334.15 671.571 1334.71 671.999C1335.26 672.457 1335.72 673.008 1336.09 673.65C1336.45 674.292 1336.7 675.025 1336.79 675.851V675.912Z" fill="white"/>
<path d="M1357.93 678.327C1357.93 679.917 1357.62 681.292 1357.04 682.454C1356.43 683.585 1355.63 684.472 1354.59 685.083C1353.55 685.694 1352.38 686 1351.1 686C1349.81 686 1348.62 685.694 1347.61 685.083C1346.59 684.472 1345.77 683.616 1345.15 682.454C1344.54 681.292 1344.27 679.947 1344.27 678.357C1344.27 676.768 1344.57 675.392 1345.15 674.231C1345.77 673.099 1346.56 672.213 1347.61 671.601C1348.65 670.99 1349.81 670.684 1351.1 670.684C1352.38 670.684 1353.58 670.99 1354.59 671.601C1355.63 672.213 1356.43 673.069 1357.04 674.231C1357.65 675.362 1357.93 676.737 1357.93 678.357V678.327ZM1355.23 678.327C1355.23 677.196 1355.05 676.248 1354.71 675.453C1354.38 674.689 1353.89 674.078 1353.24 673.68C1352.63 673.283 1351.89 673.069 1351.1 673.069C1350.3 673.069 1349.57 673.283 1348.95 673.68C1348.34 674.078 1347.85 674.659 1347.48 675.453C1347.15 676.218 1346.96 677.196 1346.96 678.327C1346.96 679.458 1347.15 680.406 1347.48 681.201C1347.82 681.965 1348.31 682.576 1348.95 682.974C1349.57 683.371 1350.3 683.585 1351.1 683.585C1351.89 683.585 1352.63 683.371 1353.24 682.974C1353.86 682.576 1354.35 681.995 1354.71 681.201C1355.05 680.436 1355.23 679.458 1355.23 678.327Z" fill="white"/>
<path d="M1365.84 670.868H1369.14L1373.59 681.659H1373.77L1378.21 670.868H1381.52V685.755H1378.92V675.545H1378.76L1374.63 685.725H1372.7L1368.56 675.514H1368.41V685.755H1365.8V670.868H1365.84Z" fill="white"/>
<path d="M1389.76 670.868H1393.07L1397.52 681.659H1397.7L1402.14 670.868H1405.45V685.755H1402.85V675.545H1402.69L1398.56 685.725H1396.63L1392.49 675.514H1392.34V685.755H1389.73V670.868H1389.76Z" fill="white"/>
<path d="M1423.07 670.868H1425.76V680.589C1425.76 681.659 1425.52 682.607 1425 683.402C1424.51 684.196 1423.8 684.838 1422.88 685.297C1421.96 685.755 1420.92 685.969 1419.7 685.969C1418.47 685.969 1417.43 685.755 1416.51 685.297C1415.59 684.838 1414.89 684.227 1414.4 683.402C1413.91 682.607 1413.66 681.659 1413.66 680.589V670.868H1416.36V680.375C1416.36 680.986 1416.48 681.537 1416.76 682.026C1417.03 682.515 1417.43 682.882 1417.92 683.157C1418.41 683.432 1419.02 683.554 1419.7 683.554C1420.37 683.554 1420.98 683.432 1421.47 683.157C1421.96 682.882 1422.36 682.515 1422.64 682.026C1422.91 681.537 1423.04 680.986 1423.04 680.375V670.868H1423.07Z" fill="white"/>
<path d="M1446.32 670.868V685.755H1443.93L1436.92 675.606H1436.79V685.755H1434.1V670.868H1436.52L1443.53 681.017H1443.66V670.868H1446.35H1446.32Z" fill="white"/>
<path d="M1457.29 670.868V685.755H1454.59V670.868H1457.29Z" fill="white"/>
<path d="M1464.89 673.13V670.868H1476.78V673.13H1472.18V685.755H1469.52V673.13H1464.92H1464.89Z" fill="white"/>
<path d="M1483.39 670.868H1486.46L1490.1 677.44H1490.26L1493.9 670.868H1496.97L1491.54 680.192V685.755H1488.85V680.192L1483.43 670.868H1483.39Z" fill="white"/>
<path d="M1527.36 675.912H1524.63C1524.54 675.453 1524.42 675.056 1524.2 674.72C1523.99 674.383 1523.75 674.078 1523.44 673.833C1523.13 673.589 1522.76 673.405 1522.37 673.283C1521.97 673.161 1521.54 673.099 1521.08 673.099C1520.28 673.099 1519.55 673.313 1518.93 673.711C1518.32 674.108 1517.83 674.72 1517.46 675.484C1517.1 676.248 1516.94 677.196 1516.94 678.327C1516.94 679.458 1517.13 680.436 1517.46 681.2C1517.83 681.965 1518.32 682.576 1518.93 682.974C1519.55 683.371 1520.28 683.554 1521.08 683.554C1521.88 683.554 1521.94 683.493 1522.34 683.371C1522.73 683.249 1523.07 683.065 1523.38 682.851C1523.68 682.607 1523.96 682.332 1524.17 681.995C1524.39 681.659 1524.54 681.262 1524.63 680.834H1527.36C1527.27 681.567 1527.05 682.209 1526.69 682.851C1526.32 683.493 1525.92 684.013 1525.37 684.502C1524.82 684.991 1524.17 685.358 1523.47 685.603C1522.76 685.847 1521.94 686 1521.05 686C1519.73 686 1518.57 685.694 1517.53 685.083C1516.48 684.471 1515.69 683.616 1515.11 682.454C1514.52 681.323 1514.22 679.947 1514.22 678.327C1514.22 676.707 1514.52 675.362 1515.11 674.2C1515.69 673.069 1516.51 672.182 1517.56 671.571C1518.6 670.96 1519.76 670.654 1521.05 670.654C1522.34 670.654 1522.64 670.776 1523.38 670.99C1524.08 671.235 1524.73 671.571 1525.28 671.999C1525.83 672.457 1526.29 673.008 1526.66 673.65C1527.02 674.292 1527.27 675.025 1527.36 675.851V675.912Z" fill="white"/>
<path d="M1548.53 678.327C1548.53 679.917 1548.23 681.292 1547.64 682.454C1547.03 683.585 1546.23 684.472 1545.19 685.083C1544.15 685.694 1542.99 686 1541.7 686C1540.41 686 1539.22 685.694 1538.21 685.083C1537.2 684.472 1536.37 683.616 1535.76 682.454C1535.14 681.292 1534.87 679.947 1534.87 678.357C1534.87 676.768 1535.17 675.392 1535.76 674.231C1536.37 673.099 1537.16 672.213 1538.21 671.601C1539.25 670.99 1540.41 670.684 1541.7 670.684C1542.99 670.684 1544.18 670.99 1545.19 671.601C1546.23 672.213 1547.03 673.069 1547.64 674.231C1548.26 675.362 1548.53 676.737 1548.53 678.357V678.327ZM1545.8 678.327C1545.8 677.196 1545.62 676.248 1545.28 675.453C1544.95 674.689 1544.46 674.078 1543.81 673.68C1543.2 673.283 1542.47 673.069 1541.67 673.069C1540.87 673.069 1540.14 673.283 1539.52 673.68C1538.91 674.078 1538.42 674.659 1538.05 675.453C1537.72 676.218 1537.53 677.196 1537.53 678.327C1537.53 679.458 1537.72 680.406 1538.05 681.201C1538.39 681.965 1538.88 682.576 1539.52 682.974C1540.14 683.371 1540.87 683.585 1541.67 683.585C1542.47 683.585 1543.2 683.371 1543.81 682.974C1544.43 682.576 1544.92 681.995 1545.28 681.201C1545.62 680.436 1545.8 679.458 1545.8 678.327Z" fill="white"/>
<path d="M1568.66 670.868V685.755H1566.27L1559.26 675.606H1559.13V685.755H1556.44V670.868H1558.86L1565.87 681.017H1566V670.868H1568.69H1568.66Z" fill="white"/>
<path d="M1576.93 685.755V670.868H1586.49V673.13H1579.63V677.165H1585.82V679.427H1579.63V685.755H1576.93Z" fill="white"/>
<path d="M1594.27 685.755V670.868H1603.99V673.13H1597V677.165H1603.5V679.427H1597V683.493H1604.05V685.755H1594.27Z" fill="white"/>
<path d="M1612.08 685.755V670.868H1617.68C1618.82 670.868 1619.8 671.051 1620.56 671.449C1621.33 671.846 1621.94 672.396 1622.34 673.13C1622.74 673.833 1622.95 674.689 1622.95 675.637C1622.95 676.584 1622.74 677.41 1622.34 678.113C1621.94 678.816 1621.33 679.366 1620.56 679.733C1619.77 680.1 1618.82 680.314 1617.65 680.314H1613.67V678.082H1617.28C1617.96 678.082 1618.51 677.991 1618.94 677.807C1619.37 677.624 1619.67 677.349 1619.89 676.982C1620.1 676.615 1620.19 676.187 1620.19 675.637C1620.19 675.086 1620.1 674.658 1619.89 674.292C1619.67 673.925 1619.37 673.619 1618.94 673.436C1618.51 673.252 1617.96 673.13 1617.28 673.13H1614.8V685.755H1612.11H1612.08ZM1619.77 679.03L1623.47 685.786H1620.47L1616.86 679.03H1619.8H1619.77Z" fill="white"/>
<path d="M1630.73 685.755V670.868H1640.45V673.13H1633.46V677.165H1639.96V679.427H1633.46V683.493H1640.51V685.755H1630.73Z" fill="white"/>
<path d="M1660.79 670.868V685.755H1658.4L1651.38 675.606H1651.26V685.755H1648.57V670.868H1650.99L1658 681.017H1658.13V670.868H1660.82H1660.79Z" fill="white"/>
<path d="M1681.84 675.912H1679.11C1679.02 675.453 1678.9 675.056 1678.68 674.72C1678.47 674.383 1678.22 674.078 1677.92 673.833C1677.61 673.589 1677.24 673.405 1676.85 673.283C1676.45 673.161 1676.02 673.099 1675.56 673.099C1674.76 673.099 1674.03 673.313 1673.41 673.711C1672.8 674.108 1672.31 674.72 1671.94 675.484C1671.58 676.248 1671.42 677.196 1671.42 678.327C1671.42 679.458 1671.61 680.436 1671.94 681.2C1672.31 681.965 1672.8 682.576 1673.41 682.974C1674.03 683.371 1674.76 683.554 1675.56 683.554C1676.35 683.554 1676.42 683.493 1676.81 683.371C1677.21 683.249 1677.55 683.065 1677.86 682.851C1678.16 682.607 1678.44 682.332 1678.65 681.995C1678.87 681.659 1679.02 681.262 1679.11 680.834H1681.84C1681.75 681.567 1681.53 682.209 1681.17 682.851C1680.8 683.493 1680.4 684.013 1679.85 684.502C1679.3 684.991 1678.65 685.358 1677.95 685.603C1677.24 685.847 1676.42 686 1675.53 686C1674.21 686 1673.05 685.694 1672 685.083C1670.96 684.471 1670.17 683.616 1669.58 682.454C1669 681.323 1668.7 679.947 1668.7 678.327C1668.7 676.707 1669 675.362 1669.58 674.2C1670.17 673.069 1670.99 672.182 1672.03 671.571C1673.08 670.96 1674.24 670.654 1675.53 670.654C1676.81 670.654 1677.12 670.776 1677.86 670.99C1678.56 671.235 1679.2 671.571 1679.76 671.999C1680.31 672.457 1680.77 673.008 1681.13 673.65C1681.5 674.292 1681.75 675.025 1681.84 675.851V675.912Z" fill="white"/>
<path d="M1689.65 685.755V670.868H1699.36V673.13H1692.38V677.165H1698.87V679.427H1692.38V683.493H1699.43V685.755H1689.65Z" fill="white"/>
</g>
<rect x="40" y="40" width="1077" height="1071" fill="white"/>
<g clip-path="url(#clip1_28_2)">
<path d="M261.249 589.276H247.523V532.874H264.344L273.505 562.986L282.666 532.874H299.486V589.276H285.852V553.448L278.805 577.079H268.235L261.28 553.632V589.276H261.249Z" fill="#00B294"/>
<path d="M306.502 532.874H321.913V589.276H306.502V532.874Z" fill="#00B294"/>
<path d="M366.799 553.968H351.387V544.919C351.387 543.635 350.652 542.993 349.182 542.993H346.087C344.616 542.993 343.881 543.635 343.881 544.919V577.232C343.881 578.516 344.616 579.158 346.087 579.158H349.182C350.652 579.158 351.387 578.516 351.387 577.232V568.55H366.799V578.393C366.799 585.669 362.479 589.276 353.869 589.276H341.461C332.821 589.276 328.531 585.638 328.531 578.393V543.788C328.531 536.543 332.851 532.905 341.461 532.905H353.869C362.509 532.905 366.799 536.543 366.799 543.788V553.968Z" fill="#00B294"/>
<path d="M387.908 569.253V589.276H372.497V532.874H398.632C407.272 532.874 411.561 536.512 411.561 543.757V558.339C411.561 563.903 409.049 567.327 403.994 568.611L414.38 589.246H397.835L388.858 569.222H387.878L387.908 569.253ZM394.005 543.849H387.939V558.767H394.005C395.476 558.767 396.211 558.125 396.211 556.841V545.775C396.211 544.491 395.476 543.849 394.005 543.849Z" fill="#00B294"/>
<path d="M430.435 532.874H443.456C452.096 532.874 456.385 536.512 456.385 543.757V578.363C456.385 585.638 452.065 589.246 443.456 589.246H430.435C421.795 589.246 417.505 585.608 417.505 578.363V543.757C417.505 536.512 421.825 532.874 430.435 532.874ZM441.005 576.345V545.775C441.005 544.491 440.269 543.849 438.799 543.849H435.092C433.621 543.849 432.886 544.491 432.886 545.775V576.345C432.886 577.629 433.621 578.271 435.092 578.271H438.799C440.269 578.271 441.005 577.629 441.005 576.345Z" fill="#00B294"/>
<path d="M484.848 576.345V568.366C484.848 567.082 484.113 566.44 482.642 566.44H474.186C469.835 566.44 466.772 565.493 464.995 563.597C463.218 561.702 462.298 558.951 462.298 555.374V543.788C462.298 536.543 466.588 532.905 475.136 532.905H487.207C495.786 532.905 500.045 536.543 500.045 543.788V550.544H484.634V545.806C484.634 544.522 483.898 543.88 482.428 543.88H479.885C478.414 543.88 477.679 544.522 477.679 545.806V554.151C477.679 555.435 478.414 556.077 479.885 556.077H488.157C492.508 556.077 495.602 556.994 497.441 558.798C499.279 560.601 500.229 563.292 500.229 566.777V578.363C500.229 585.638 495.939 589.246 487.391 589.246H475.412C466.772 589.246 462.482 585.608 462.482 578.363V571.607H477.893V576.345C477.893 577.629 478.629 578.271 480.099 578.271H482.642C484.113 578.271 484.848 577.629 484.848 576.345Z" fill="#00B294"/>
<path d="M519.071 532.874H532.093C540.733 532.874 545.022 536.512 545.022 543.757V578.363C545.022 585.638 540.702 589.246 532.093 589.246H519.071C510.431 589.246 506.142 585.608 506.142 578.363V543.757C506.142 536.512 510.462 532.874 519.071 532.874ZM529.642 576.345V545.775C529.642 544.491 528.906 543.849 527.436 543.849H523.728C522.258 543.849 521.522 544.491 521.522 545.775V576.345C521.522 577.629 522.258 578.271 523.728 578.271H527.436C528.906 578.271 529.642 577.629 529.642 576.345Z" fill="#00B294"/>
<path d="M585.71 543.849H567.235V557.544H583.259V567.633H567.235V589.246H551.824V532.844H585.71V543.819V543.849Z" fill="#00B294"/>
<path d="M624.621 532.874V543.849H613.713V589.246H598.302V543.849H587.487V532.874H624.621Z" fill="#00B294"/>
<path d="M680.076 543.849H661.601V557.544H677.625V567.633H661.601V589.246H646.19V532.844H680.076V543.819V543.849Z" fill="#00B294"/>
<path d="M713.717 589.276L711.971 580.839H698.428L696.59 589.276H681.455L695.977 532.874H714.728L729.251 589.276H713.748H713.717ZM700.757 569.956H709.55L705.23 549.657L700.726 569.956H700.757Z" fill="#00B294"/>
<path d="M732.713 532.874H758.602C767.242 532.874 771.531 536.512 771.531 543.757V550.972C771.531 556.077 770.122 559.379 767.303 560.907C768.958 561.61 770.061 562.68 770.643 564.117C771.225 565.554 771.531 567.51 771.531 569.956V578.393C771.531 585.669 767.211 589.276 758.602 589.276H732.713V532.874ZM756.396 554.059V544.919C756.396 543.635 755.661 542.993 754.19 542.993H747.848V555.985H754.19C755.661 555.985 756.396 555.343 756.396 554.059ZM756.396 577.232V567.999C756.396 566.716 755.661 566.074 754.19 566.074H747.848V579.158H754.19C755.661 579.158 756.396 578.516 756.396 577.232Z" fill="#00B294"/>
<path d="M793.53 569.253V589.276H778.119V532.874H804.253C812.893 532.874 817.183 536.512 817.183 543.757V558.339C817.183 563.903 814.67 567.327 809.615 568.611L820.001 589.246H803.457L794.48 569.222H793.499L793.53 569.253ZM799.627 543.849H793.56V558.767H799.627C801.098 558.767 801.833 558.125 801.833 556.841V545.775C801.833 544.491 801.098 543.849 799.627 543.849Z" fill="#00B294"/>
<path d="M823.372 532.874H838.783V589.276H823.372V532.874Z" fill="#00B294"/>
<path d="M883.668 553.968H868.257V544.919C868.257 543.635 867.522 542.993 866.051 542.993H862.956C861.486 542.993 860.75 543.635 860.75 544.919V577.232C860.75 578.516 861.486 579.158 862.956 579.158H866.051C867.522 579.158 868.257 578.516 868.257 577.232V568.55H883.668V578.393C883.668 585.669 879.348 589.276 870.739 589.276H858.33C849.69 589.276 845.401 585.638 845.401 578.393V543.788C845.401 536.543 849.721 532.905 858.33 532.905H870.739C879.379 532.905 883.668 536.543 883.668 543.788V553.968Z" fill="#00B294"/>
<path d="M276.293 520.402L274.546 511.964H261.004L259.166 520.402H244L258.523 464H277.273L291.796 520.402H276.293ZM263.363 501.051H272.157L267.837 480.752L263.333 501.051H263.363Z" fill="#00B294"/>
<path d="M295.319 464H321.454C330.094 464 334.383 467.638 334.383 474.883V491.055C334.383 498.33 330.063 501.937 321.454 501.937H310.7V520.371H295.289V464H295.319ZM319.003 489.037V476.931C319.003 475.647 318.267 475.005 316.797 475.005H310.73V490.993H316.797C318.267 490.993 319.003 490.351 319.003 489.067V489.037Z" fill="#00B294"/>
<path d="M368.484 520.402L366.737 511.964H353.195L351.357 520.402H336.221L350.683 464H369.433L383.956 520.402H368.453H368.484ZM355.524 501.051H364.317L359.997 480.752L355.493 501.051H355.524Z" fill="#00B294"/>
<path d="M425.349 485.093H409.937V476.045C409.937 474.761 409.202 474.119 407.731 474.119H404.637C403.166 474.119 402.431 474.761 402.431 476.045V508.357C402.431 509.641 403.166 510.283 404.637 510.283H407.731C409.202 510.283 409.937 509.641 409.937 508.357V499.675H425.349V509.519C425.349 516.795 421.029 520.402 412.419 520.402H400.011C391.371 520.402 387.081 516.764 387.081 509.519V474.883C387.081 467.638 391.401 464 400.011 464H412.419C421.059 464 425.349 467.638 425.349 474.883V485.063V485.093Z" fill="#00B294"/>
<path d="M261.249 658.151H247.523V601.749H264.344L273.505 631.86L282.666 601.749H299.486V658.151H285.852V622.323L278.805 645.953H268.235L261.28 622.506V658.151H261.249Z" fill="#1360A8"/>
<path d="M306.502 601.749H321.913V658.151H306.502V601.749Z" fill="#1360A8"/>
<path d="M366.799 622.842H351.387V613.793C351.387 612.51 350.652 611.868 349.182 611.868H346.087C344.616 611.868 343.881 612.51 343.881 613.793V646.106C343.881 647.39 344.616 648.032 346.087 648.032H349.182C350.652 648.032 351.387 647.39 351.387 646.106V637.424H366.799V647.268C366.799 654.543 362.479 658.151 353.869 658.151H341.461C332.821 658.151 328.531 654.513 328.531 647.268V612.662C328.531 605.417 332.851 601.779 341.461 601.779H353.869C362.509 601.779 366.799 605.417 366.799 612.662V622.842Z" fill="#1360A8"/>
<path d="M387.908 638.127V658.151H372.497V601.749H398.632C407.272 601.749 411.561 605.387 411.561 612.632V627.214C411.561 632.777 409.049 636.201 403.994 637.485L414.38 658.12H397.835L388.858 638.097H387.878L387.908 638.127ZM394.005 612.754H387.939V627.672H394.005C395.476 627.672 396.211 627.03 396.211 625.746V614.68C396.211 613.396 395.476 612.754 394.005 612.754Z" fill="#1360A8"/>
<path d="M430.435 601.749H443.456C452.096 601.749 456.385 605.387 456.385 612.632V647.237C456.385 654.513 452.065 658.12 443.456 658.12H430.435C421.795 658.12 417.505 654.482 417.505 647.237V612.632C417.505 605.387 421.825 601.749 430.435 601.749ZM441.005 645.25V614.68C441.005 613.396 440.269 612.754 438.799 612.754H435.092C433.621 612.754 432.886 613.396 432.886 614.68V645.25C432.886 646.534 433.621 647.176 435.092 647.176H438.799C440.269 647.176 441.005 646.534 441.005 645.25Z" fill="#1360A8"/>
<path d="M484.848 645.25V637.271C484.848 635.987 484.113 635.345 482.642 635.345H474.186C469.835 635.345 466.772 634.398 464.995 632.502C463.218 630.607 462.298 627.856 462.298 624.279V612.693C462.298 605.448 466.588 601.81 475.136 601.81H487.207C495.786 601.81 500.045 605.448 500.045 612.693V619.449H484.634V614.711C484.634 613.427 483.898 612.785 482.428 612.785H479.885C478.414 612.785 477.679 613.427 477.679 614.711V623.056C477.679 624.34 478.414 624.982 479.885 624.982H488.157C492.508 624.982 495.602 625.899 497.441 627.703C499.279 629.507 500.229 632.197 500.229 635.682V647.268C500.229 654.543 495.939 658.151 487.391 658.151H475.412C466.772 658.151 462.482 654.513 462.482 647.268V640.512H477.893V645.25C477.893 646.534 478.629 647.176 480.099 647.176H482.642C484.113 647.176 484.848 646.534 484.848 645.25Z" fill="#1360A8"/>
<path d="M519.071 601.749H532.093C540.733 601.749 545.022 605.387 545.022 612.632V647.237C545.022 654.513 540.702 658.12 532.093 658.12H519.071C510.431 658.12 506.142 654.482 506.142 647.237V612.632C506.142 605.387 510.462 601.749 519.071 601.749ZM529.642 645.25V614.68C529.642 613.396 528.906 612.754 527.436 612.754H523.728C522.258 612.754 521.522 613.396 521.522 614.68V645.25C521.522 646.534 522.258 647.176 523.728 647.176H527.436C528.906 647.176 529.642 646.534 529.642 645.25Z" fill="#1360A8"/>
<path d="M585.71 612.754H567.235V626.449H583.259V636.538H567.235V658.151H551.824V601.749H585.71V612.724V612.754Z" fill="#1360A8"/>
<path d="M624.621 601.749V612.724H613.713V658.12H598.302V612.724H587.487V601.749H624.621Z" fill="#1360A8"/>
<path d="M667.851 645.25V637.271C667.851 635.987 667.116 635.345 665.645 635.345H657.189C652.838 635.345 649.775 634.398 647.998 632.502C646.221 630.607 645.301 627.856 645.301 624.279V612.693C645.301 605.448 649.591 601.81 658.139 601.81H670.21C678.789 601.81 683.048 605.448 683.048 612.693V619.449H667.637V614.711C667.637 613.427 666.901 612.785 665.431 612.785H662.888C661.417 612.785 660.682 613.427 660.682 614.711V623.056C660.682 624.34 661.417 624.982 662.888 624.982H671.16C675.511 624.982 678.605 625.899 680.444 627.703C682.282 629.507 683.232 632.197 683.232 635.682V647.268C683.232 654.543 678.942 658.151 670.394 658.151H658.415C649.775 658.151 645.485 654.513 645.485 647.268V640.512H660.896V645.25C660.896 646.534 661.632 647.176 663.102 647.176H665.645C667.116 647.176 667.851 646.534 667.851 645.25Z" fill="#1360A8"/>
<path d="M702.074 658.151C693.434 658.151 689.145 654.513 689.145 647.268V612.662C689.145 605.417 693.465 601.779 702.074 601.779H715.096C723.736 601.779 728.025 605.417 728.025 612.662V647.268C728.025 650.906 726.953 653.626 724.777 655.43L732.958 664.112H715.433L709.887 658.151H702.044H702.074ZM704.556 614.68V645.25C704.556 646.534 705.291 647.176 706.762 647.176H710.469C711.94 647.176 712.675 646.534 712.675 645.25V614.68C712.675 613.396 711.94 612.754 710.469 612.754H706.762C705.291 612.754 704.556 613.396 704.556 614.68Z" fill="#1360A8"/>
<path d="M750.238 647.176H767.763V658.151H734.827V601.749H750.238V647.145V647.176Z" fill="#1360A8"/>
<mask id="mask1_28_2" style="mask-type:luminance" maskUnits="userSpaceOnUse" x="893" y="570" width="21" height="20">
<path d="M914 577.201V582.49H907.229V589.032H900.335V582.49H893.564V577.201H900.335V570.659H907.229V577.201H914Z" fill="white"/>
</mask>
<g mask="url(#mask1_28_2)">
<path d="M893.779 570.659H893.534V589.032H893.779V570.659Z" fill="#00B294"/>
<path d="M894.024 570.659H893.779V589.032H894.024V570.659Z" fill="#00B194"/>
<path d="M894.3 570.659H894.054V589.032H894.3V570.659Z" fill="#00B094"/>
<path d="M894.545 570.659H894.299V589.032H894.545V570.659Z" fill="#01AF95"/>
<path d="M894.79 570.659H894.545V589.032H894.79V570.659Z" fill="#01AE95"/>
<path d="M895.035 570.659H894.79V589.032H895.035V570.659Z" fill="#01AD95"/>
<path d="M895.281 570.659H895.035V589.032H895.281V570.659Z" fill="#01AC95"/>
<path d="M895.526 570.659H895.28V589.032H895.526V570.659Z" fill="#02AB96"/>
<path d="M895.771 570.659H895.525V589.032H895.771V570.659Z" fill="#02AA96"/>
<path d="M896.016 570.659H895.77V589.032H896.016V570.659Z" fill="#02A996"/>
<path d="M896.292 570.659H896.046V589.032H896.292V570.659Z" fill="#02A896"/>
<path d="M896.537 570.659H896.291V589.032H896.537V570.659Z" fill="#03A797"/>
<path d="M896.782 570.659H896.536V589.032H896.782V570.659Z" fill="#03A697"/>
<path d="M897.027 570.659H896.781V589.032H897.027V570.659Z" fill="#03A597"/>
<path d="M897.272 570.659H897.026V589.032H897.272V570.659Z" fill="#03A497"/>
<path d="M897.517 570.659H897.271V589.032H897.517V570.659Z" fill="#04A398"/>
<path d="M897.762 570.659H897.517V589.032H897.762V570.659Z" fill="#04A298"/>
<path d="M898.007 570.659H897.762V589.032H898.007V570.659Z" fill="#04A198"/>
<path d="M898.283 570.659H898.037V589.032H898.283V570.659Z" fill="#04A098"/>
<path d="M898.528 570.659H898.283V589.032H898.528V570.659Z" fill="#049F99"/>
<path d="M898.773 570.659H898.528V589.032H898.773V570.659Z" fill="#059E99"/>
<path d="M899.018 570.659H898.773V589.032H899.018V570.659Z" fill="#059D99"/>
<path d="M899.264 570.659H899.018V589.032H899.264V570.659Z" fill="#059C99"/>
<path d="M899.509 570.659H899.263V589.032H899.509V570.659Z" fill="#059B9A"/>
<path d="M899.754 570.659H899.508V589.032H899.754V570.659Z" fill="#069A9A"/>
<path d="M900.03 570.659H899.784V589.032H900.03V570.659Z" fill="#06999A"/>
<path d="M900.275 570.659H900.029V589.032H900.275V570.659Z" fill="#06989A"/>
<path d="M900.52 570.659H900.274V589.032H900.52V570.659Z" fill="#06979B"/>
<path d="M900.765 570.659H900.519V589.032H900.765V570.659Z" fill="#07969B"/>
<path d="M901.01 570.659H900.764V589.032H901.01V570.659Z" fill="#07959B"/>
<path d="M901.255 570.659H901.009V589.032H901.255V570.659Z" fill="#07949B"/>
<path d="M901.5 570.659H901.254V589.032H901.5V570.659Z" fill="#07939C"/>
<path d="M901.745 570.659H901.5V589.032H901.745V570.659Z" fill="#08929C"/>
<path d="M902.021 570.659H901.775V589.032H902.021V570.659Z" fill="#08919C"/>
<path d="M902.266 570.659H902.02V589.032H902.266V570.659Z" fill="#08909C"/>
<path d="M902.511 570.659H902.266V589.032H902.511V570.659Z" fill="#088F9D"/>
<path d="M902.756 570.659H902.511V589.032H902.756V570.659Z" fill="#088E9D"/>
<path d="M903.001 570.659H902.756V589.032H903.001V570.659Z" fill="#098D9D"/>
<path d="M903.247 570.659H903.001V589.032H903.247V570.659Z" fill="#098C9D"/>
<path d="M903.492 570.659H903.246V589.032H903.492V570.659Z" fill="#098B9E"/>
<path d="M903.737 570.659H903.491V589.032H903.737V570.659Z" fill="#098A9E"/>
<path d="M904.012 570.659H903.767V589.032H904.012V570.659Z" fill="#0A889E"/>
<path d="M904.258 570.659H904.012V589.032H904.258V570.659Z" fill="#0A879E"/>
<path d="M904.503 570.659H904.257V589.032H904.503V570.659Z" fill="#0A869F"/>
<path d="M904.748 570.659H904.502V589.032H904.748V570.659Z" fill="#0A859F"/>
<path d="M904.993 570.659H904.747V589.032H904.993V570.659Z" fill="#0B849F"/>
<path d="M905.238 570.659H904.992V589.032H905.238V570.659Z" fill="#0B839F"/>
<path d="M905.483 570.659H905.237V589.032H905.483V570.659Z" fill="#0B82A0"/>
<path d="M905.728 570.659H905.483V589.032H905.728V570.659Z" fill="#0B81A0"/>
<path d="M906.004 570.659H905.758V589.032H906.004V570.659Z" fill="#0B80A0"/>
<path d="M906.249 570.659H906.003V589.032H906.249V570.659Z" fill="#0C7FA0"/>
<path d="M906.494 570.659H906.248V589.032H906.494V570.659Z" fill="#0C7EA1"/>
<path d="M906.739 570.659H906.494V589.032H906.739V570.659Z" fill="#0C7DA1"/>
<path d="M906.984 570.659H906.739V589.032H906.984V570.659Z" fill="#0C7CA1"/>
<path d="M907.23 570.659H906.984V589.032H907.23V570.659Z" fill="#0D7BA1"/>
<path d="M907.475 570.659H907.229V589.032H907.475V570.659Z" fill="#0D7AA2"/>
<path d="M907.75 570.659H907.505V589.032H907.75V570.659Z" fill="#0D79A2"/>
<path d="M907.996 570.659H907.75V589.032H907.996V570.659Z" fill="#0D78A2"/>
<path d="M908.241 570.659H907.995V589.032H908.241V570.659Z" fill="#0E77A2"/>
<path d="M908.486 570.659H908.24V589.032H908.486V570.659Z" fill="#0E76A3"/>
<path d="M908.731 570.659H908.485V589.032H908.731V570.659Z" fill="#0E75A3"/>
<path d="M908.976 570.659H908.73V589.032H908.976V570.659Z" fill="#0E74A3"/>
<path d="M909.221 570.659H908.975V589.032H909.221V570.659Z" fill="#0F73A3"/>
<path d="M909.466 570.659H909.22V589.032H909.466V570.659Z" fill="#0F72A4"/>
<path d="M909.742 570.659H909.496V589.032H909.742V570.659Z" fill="#0F71A4"/>
<path d="M909.987 570.659H909.741V589.032H909.987V570.659Z" fill="#0F70A4"/>
<path d="M910.232 570.659H909.986V589.032H910.232V570.659Z" fill="#0F6FA4"/>
<path d="M910.477 570.659H910.231V589.032H910.477V570.659Z" fill="#106EA5"/>
<path d="M910.722 570.659H910.477V589.032H910.722V570.659Z" fill="#106DA5"/>
<path d="M910.967 570.659H910.722V589.032H910.967V570.659Z" fill="#106CA5"/>
<path d="M911.212 570.659H910.967V589.032H911.212V570.659Z" fill="#106BA5"/>
<path d="M911.458 570.659H911.212V589.032H911.458V570.659Z" fill="#116AA6"/>
<path d="M911.733 570.659H911.488V589.032H911.733V570.659Z" fill="#1169A6"/>
<path d="M911.978 570.659H911.733V589.032H911.978V570.659Z" fill="#1168A6"/>
<path d="M912.224 570.659H911.978V589.032H912.224V570.659Z" fill="#1167A6"/>
<path d="M912.469 570.659H912.223V589.032H912.469V570.659Z" fill="#1266A7"/>
<path d="M912.714 570.659H912.468V589.032H912.714V570.659Z" fill="#1265A7"/>
<path d="M912.959 570.659H912.713V589.032H912.959V570.659Z" fill="#1264A7"/>
<path d="M913.204 570.659H912.958V589.032H913.204V570.659Z" fill="#1263A7"/>
<path d="M913.449 570.659H913.203V589.032H913.449V570.659Z" fill="#1362A8"/>
<path d="M913.725 570.659H913.479V589.032H913.725V570.659Z" fill="#1361A8"/>
<path d="M913.97 570.659H913.724V589.032H913.97V570.659Z" fill="#1360A8"/>
</g>
<path d="M260.79 675.912H258.063C257.971 675.453 257.849 675.056 257.634 674.72C257.42 674.383 257.174 674.078 256.868 673.833C256.562 673.589 256.194 673.405 255.796 673.283C255.397 673.161 254.969 673.099 254.509 673.099C253.712 673.099 252.977 673.313 252.364 673.711C251.752 674.108 251.261 674.72 250.894 675.484C250.526 676.248 250.373 677.196 250.373 678.327C250.373 679.458 250.557 680.436 250.894 681.2C251.261 681.965 251.752 682.576 252.364 682.974C252.977 683.371 253.712 683.554 254.509 683.554C255.306 683.554 255.367 683.493 255.765 683.371C256.163 683.249 256.5 683.065 256.807 682.851C257.113 682.607 257.389 682.332 257.603 681.995C257.818 681.659 257.971 681.262 258.063 680.834H260.79C260.698 681.567 260.483 682.209 260.116 682.851C259.748 683.493 259.35 684.013 258.798 684.502C258.247 684.991 257.603 685.358 256.899 685.603C256.194 685.847 255.367 686 254.478 686C253.161 686 251.997 685.694 250.955 685.083C249.913 684.471 249.117 683.616 248.534 682.454C247.952 681.323 247.646 679.947 247.646 678.327C247.646 676.707 247.952 675.362 248.534 674.2C249.117 673.069 249.944 672.182 250.986 671.571C252.027 670.96 253.192 670.654 254.478 670.654C255.765 670.654 256.072 670.776 256.807 670.99C257.512 671.235 258.155 671.571 258.706 671.999C259.258 672.457 259.717 673.008 260.085 673.65C260.453 674.292 260.698 675.025 260.79 675.851V675.912Z" fill="#1A1A1A"/>
<path d="M281.93 678.327C281.93 679.917 281.624 681.292 281.042 682.454C280.429 683.585 279.632 684.472 278.591 685.083C277.549 685.694 276.385 686 275.098 686C273.811 686 272.616 685.694 271.605 685.083C270.594 684.472 269.767 683.616 269.154 682.454C268.541 681.292 268.266 679.947 268.266 678.357C268.266 676.768 268.572 675.392 269.154 674.231C269.767 673.099 270.563 672.213 271.605 671.601C272.647 670.99 273.811 670.684 275.098 670.684C276.385 670.684 277.58 670.99 278.591 671.601C279.632 672.213 280.429 673.069 281.042 674.231C281.655 675.362 281.93 676.737 281.93 678.357V678.327ZM279.234 678.327C279.234 677.196 279.05 676.248 278.713 675.453C278.376 674.689 277.886 674.078 277.243 673.68C276.63 673.283 275.895 673.069 275.098 673.069C274.301 673.069 273.566 673.283 272.953 673.68C272.34 674.078 271.85 674.659 271.483 675.453C271.146 676.218 270.962 677.196 270.962 678.327C270.962 679.458 271.146 680.406 271.483 681.201C271.82 681.965 272.31 682.576 272.953 682.974C273.566 683.371 274.301 683.585 275.098 683.585C275.895 683.585 276.63 683.371 277.243 682.974C277.855 682.576 278.346 681.995 278.713 681.201C279.05 680.436 279.234 679.458 279.234 678.327Z" fill="#1A1A1A"/>
<path d="M289.835 670.868H293.144L297.587 681.659H297.77L302.213 670.868H305.522V685.755H302.918V675.545H302.764L298.628 685.725H296.698L292.562 675.514H292.409V685.755H289.804V670.868H289.835Z" fill="#1A1A1A"/>
<path d="M313.764 670.868H317.073L321.515 681.659H321.699L326.141 670.868H329.45V685.755H326.846V675.545H326.693L322.557 685.725H320.627L316.49 675.514H316.337V685.755H313.733V670.868H313.764Z" fill="#1A1A1A"/>
<path d="M347.067 670.868H349.764V680.589C349.764 681.659 349.519 682.607 348.998 683.402C348.507 684.196 347.803 684.838 346.884 685.297C345.964 685.755 344.923 685.969 343.697 685.969C342.472 685.969 341.43 685.755 340.511 685.297C339.592 684.838 338.887 684.227 338.397 683.402C337.907 682.607 337.661 681.659 337.661 680.589V670.868H340.358V680.375C340.358 680.986 340.48 681.537 340.756 682.026C341.032 682.515 341.43 682.882 341.92 683.157C342.41 683.432 343.023 683.554 343.697 683.554C344.371 683.554 344.984 683.432 345.474 683.157C345.964 682.882 346.363 682.515 346.639 682.026C346.914 681.537 347.037 680.986 347.037 680.375V670.868H347.067Z" fill="#1A1A1A"/>
<path d="M370.322 670.868V685.755H367.932L360.916 675.606H360.794V685.755H358.097V670.868H360.518L367.534 681.017H367.656V670.868H370.353H370.322Z" fill="#1A1A1A"/>
<path d="M381.291 670.868V685.755H378.594V670.868H381.291Z" fill="#1A1A1A"/>
<path d="M388.889 673.13V670.868H400.777V673.13H396.181V685.755H393.515V673.13H388.92H388.889Z" fill="#1A1A1A"/>
<path d="M407.394 670.868H410.458L414.104 677.44H414.257L417.903 670.868H420.967L415.544 680.192V685.755H412.848V680.192L407.425 670.868H407.394Z" fill="#1A1A1A"/>
<path d="M451.361 675.912H448.634C448.542 675.453 448.419 675.056 448.205 674.72C447.99 674.383 447.745 674.078 447.439 673.833C447.132 673.589 446.765 673.405 446.366 673.283C445.968 673.161 445.539 673.099 445.08 673.099C444.283 673.099 443.548 673.313 442.935 673.711C442.322 674.108 441.832 674.72 441.464 675.484C441.097 676.248 440.943 677.196 440.943 678.327C440.943 679.458 441.127 680.436 441.464 681.2C441.832 681.965 442.322 682.576 442.935 682.974C443.548 683.371 444.283 683.554 445.08 683.554C445.876 683.554 445.938 683.493 446.336 683.371C446.734 683.249 447.071 683.065 447.378 682.851C447.684 682.607 447.96 682.332 448.174 681.995C448.389 681.659 448.542 681.262 448.634 680.834H451.361C451.269 681.567 451.054 682.209 450.686 682.851C450.319 683.493 449.921 684.013 449.369 684.502C448.818 684.991 448.174 685.358 447.469 685.603C446.765 685.847 445.938 686 445.049 686C443.732 686 442.567 685.694 441.526 685.083C440.484 684.471 439.687 683.616 439.105 682.454C438.523 681.323 438.217 679.947 438.217 678.327C438.217 676.707 438.523 675.362 439.105 674.2C439.687 673.069 440.515 672.182 441.556 671.571C442.598 670.96 443.762 670.654 445.049 670.654C446.336 670.654 446.642 670.776 447.378 670.99C448.082 671.235 448.726 671.571 449.277 671.999C449.829 672.457 450.288 673.008 450.656 673.65C451.024 674.292 451.269 675.025 451.361 675.851V675.912Z" fill="#1A1A1A"/>
<path d="M472.532 678.327C472.532 679.917 472.225 681.292 471.643 682.454C471.03 683.585 470.234 684.472 469.192 685.083C468.15 685.694 466.986 686 465.699 686C464.412 686 463.218 685.694 462.207 685.083C461.195 684.472 460.368 683.616 459.755 682.454C459.143 681.292 458.867 679.947 458.867 678.357C458.867 676.768 459.173 675.392 459.755 674.231C460.368 673.099 461.165 672.213 462.207 671.601C463.248 670.99 464.412 670.684 465.699 670.684C466.986 670.684 468.181 670.99 469.192 671.601C470.234 672.213 471.03 673.069 471.643 674.231C472.256 675.362 472.532 676.737 472.532 678.357V678.327ZM469.805 678.327C469.805 677.196 469.621 676.248 469.284 675.453C468.947 674.689 468.457 674.078 467.813 673.68C467.201 673.283 466.465 673.069 465.669 673.069C464.872 673.069 464.137 673.283 463.524 673.68C462.911 674.078 462.421 674.659 462.053 675.453C461.716 676.218 461.532 677.196 461.532 678.327C461.532 679.458 461.716 680.406 462.053 681.201C462.39 681.965 462.881 682.576 463.524 682.974C464.137 683.371 464.872 683.585 465.669 683.585C466.465 683.585 467.201 683.371 467.813 682.974C468.426 682.576 468.916 681.995 469.284 681.201C469.621 680.436 469.805 679.458 469.805 678.327Z" fill="#1A1A1A"/>
<path d="M492.661 670.868V685.755H490.271L483.255 675.606H483.133V685.755H480.436V670.868H482.857L489.873 681.017H489.996V670.868H492.692H492.661Z" fill="#1A1A1A"/>
<path d="M500.933 685.755V670.868H510.493V673.13H503.63V677.165H509.819V679.427H503.63V685.755H500.933Z" fill="#1A1A1A"/>
<path d="M518.275 685.755V670.868H527.987V673.13H521.002V677.165H527.497V679.427H521.002V683.493H528.048V685.755H518.275Z" fill="#1A1A1A"/>
<path d="M536.076 685.755V670.868H541.682C542.816 670.868 543.796 671.051 544.562 671.449C545.328 671.846 545.941 672.396 546.339 673.13C546.738 673.833 546.952 674.689 546.952 675.637C546.952 676.584 546.738 677.41 546.339 678.113C545.941 678.816 545.328 679.366 544.562 679.733C543.766 680.1 542.816 680.314 541.652 680.314H537.669V678.082H541.284C541.958 678.082 542.51 677.991 542.939 677.807C543.368 677.624 543.674 677.349 543.888 676.982C544.103 676.615 544.195 676.187 544.195 675.637C544.195 675.086 544.103 674.658 543.888 674.292C543.674 673.925 543.368 673.619 542.939 673.436C542.51 673.252 541.958 673.13 541.284 673.13H538.802V685.755H536.106H536.076ZM543.766 679.03L547.473 685.786H544.471L540.855 679.03H543.796H543.766Z" fill="#1A1A1A"/>
<path d="M554.734 685.755V670.868H564.447V673.13H557.461V677.165H563.957V679.427H557.461V683.493H564.508V685.755H554.734Z" fill="#1A1A1A"/>
<path d="M584.791 670.868V685.755H582.401L575.385 675.606H575.262V685.755H572.566V670.868H574.986L582.003 681.017H582.125V670.868H584.821H584.791Z" fill="#1A1A1A"/>
<path d="M605.839 675.912H603.112C603.02 675.453 602.898 675.056 602.683 674.72C602.469 674.383 602.224 674.078 601.917 673.833C601.611 673.589 601.243 673.405 600.845 673.283C600.447 673.161 600.018 673.099 599.558 673.099C598.762 673.099 598.026 673.313 597.414 673.711C596.801 674.108 596.311 674.72 595.943 675.484C595.575 676.248 595.422 677.196 595.422 678.327C595.422 679.458 595.606 680.436 595.943 681.2C596.311 681.965 596.801 682.576 597.414 682.974C598.026 683.371 598.762 683.554 599.558 683.554C600.355 683.554 600.416 683.493 600.814 683.371C601.213 683.249 601.55 683.065 601.856 682.851C602.163 682.607 602.438 682.332 602.653 681.995C602.867 681.659 603.02 681.262 603.112 680.834H605.839C605.747 681.567 605.533 682.209 605.165 682.851C604.797 683.493 604.399 684.013 603.848 684.502C603.296 684.991 602.653 685.358 601.948 685.603C601.243 685.847 600.416 686 599.528 686C598.21 686 597.046 685.694 596.004 685.083C594.963 684.471 594.166 683.616 593.584 682.454C593.002 681.323 592.695 679.947 592.695 678.327C592.695 676.707 593.002 675.362 593.584 674.2C594.166 673.069 594.993 672.182 596.035 671.571C597.077 670.96 598.241 670.654 599.528 670.654C600.814 670.654 601.121 670.776 601.856 670.99C602.561 671.235 603.204 671.571 603.756 671.999C604.307 672.457 604.767 673.008 605.134 673.65C605.502 674.292 605.747 675.025 605.839 675.851V675.912Z" fill="#1A1A1A"/>
<path d="M613.652 685.755V670.868H623.364V673.13H616.379V677.165H622.874V679.427H616.379V683.493H623.426V685.755H613.652Z" fill="#1A1A1A"/>
</g>
<rect x="40" y="4" width="38.0156" height="30" rx="3" fill="white"/>
<rect x="40.5" y="4.5" width="37.0156" height="29" rx="2.5" stroke="white" stroke-opacity="0.0980392"/>
<path d="M46.9688 22V14H47.9375V21.1406H51.6563V22H46.9688ZM55.4688 22.125C54.9271 22.125 54.4518 21.9961 54.043 21.7383C53.6367 21.4805 53.319 21.1198 53.0898 20.6562C52.8633 20.1927 52.75 19.651 52.75 19.0312C52.75 18.4062 52.8633 17.8607 53.0898 17.3945C53.319 16.9284 53.6367 16.5664 54.043 16.3086C54.4518 16.0508 54.9271 15.9219 55.4688 15.9219C56.0104 15.9219 56.4844 16.0508 56.8906 16.3086C57.2995 16.5664 57.6172 16.9284 57.8438 17.3945C58.0729 17.8607 58.1875 18.4062 58.1875 19.0312C58.1875 19.651 58.0729 20.1927 57.8438 20.6562C57.6172 21.1198 57.2995 21.4805 56.8906 21.7383C56.4844 21.9961 56.0104 22.125 55.4688 22.125ZM55.4688 21.2969C55.8802 21.2969 56.2187 21.1914 56.4844 20.9805C56.75 20.7695 56.9466 20.4922 57.0742 20.1484C57.2018 19.8047 57.2656 19.4323 57.2656 19.0312C57.2656 18.6302 57.2018 18.2565 57.0742 17.9102C56.9466 17.5638 56.75 17.2839 56.4844 17.0703C56.2187 16.8568 55.8802 16.75 55.4688 16.75C55.0573 16.75 54.7188 16.8568 54.4531 17.0703C54.1875 17.2839 53.9909 17.5638 53.8633 17.9102C53.7357 18.2565 53.6719 18.6302 53.6719 19.0312C53.6719 19.4323 53.7357 19.8047 53.8633 20.1484C53.9909 20.4922 54.1875 20.7695 54.4531 20.9805C54.7188 21.1914 55.0573 21.2969 55.4688 21.2969ZM62.0166 24.375C61.5713 24.375 61.1885 24.3177 60.8682 24.2031C60.5479 24.0911 60.2809 23.9427 60.0674 23.7578C59.8564 23.5755 59.6885 23.3802 59.5635 23.1719L60.2979 22.6563C60.3812 22.7656 60.4867 22.8906 60.6143 23.0312C60.7419 23.1745 60.9163 23.2982 61.1377 23.4023C61.3617 23.5091 61.6546 23.5625 62.0166 23.5625C62.501 23.5625 62.9007 23.4453 63.2158 23.2109C63.5309 22.9766 63.6885 22.6094 63.6885 22.1094V20.8906H63.6104C63.5426 21 63.4463 21.1354 63.3213 21.2969C63.1989 21.4557 63.0218 21.5977 62.79 21.7227C62.5609 21.8451 62.251 21.9062 61.8604 21.9062C61.376 21.9062 60.9411 21.7917 60.5557 21.5625C60.1729 21.3333 59.8695 21 59.6455 20.5625C59.4242 20.125 59.3135 19.5937 59.3135 18.9687C59.3135 18.3542 59.4215 17.819 59.6377 17.3633C59.8538 16.9049 60.1546 16.5508 60.54 16.3008C60.9255 16.0482 61.3708 15.9219 61.876 15.9219C62.2666 15.9219 62.5765 15.987 62.8057 16.1172C63.0374 16.2448 63.2145 16.3906 63.3369 16.5547C63.4619 16.7161 63.5583 16.849 63.626 16.9531H63.7197V16H64.6104V22.1719C64.6104 22.6875 64.4932 23.1068 64.2588 23.4297C64.027 23.7552 63.7145 23.9935 63.3213 24.1445C62.9307 24.2982 62.4958 24.375 62.0166 24.375ZM61.9854 21.0781C62.3551 21.0781 62.6676 20.9935 62.9229 20.8242C63.1781 20.6549 63.3721 20.4115 63.5049 20.0938C63.6377 19.776 63.7041 19.3958 63.7041 18.9531C63.7041 18.5208 63.639 18.1393 63.5088 17.8086C63.3786 17.4779 63.1859 17.2187 62.9307 17.0312C62.6755 16.8437 62.3604 16.75 61.9854 16.75C61.5947 16.75 61.2692 16.849 61.0088 17.0469C60.751 17.2448 60.557 17.5104 60.4268 17.8438C60.2992 18.1771 60.2354 18.5469 60.2354 18.9531C60.2354 19.3698 60.3005 19.7383 60.4307 20.0586C60.5635 20.3763 60.7588 20.6263 61.0166 20.8086C61.277 20.9883 61.5999 21.0781 61.9854 21.0781ZM68.7354 22.125C68.1937 22.125 67.7184 21.9961 67.3096 21.7383C66.9033 21.4805 66.5856 21.1198 66.3564 20.6562C66.1299 20.1927 66.0166 19.651 66.0166 19.0312C66.0166 18.4062 66.1299 17.8607 66.3564 17.3945C66.5856 16.9284 66.9033 16.5664 67.3096 16.3086C67.7184 16.0508 68.1937 15.9219 68.7354 15.9219C69.277 15.9219 69.751 16.0508 70.1572 16.3086C70.5661 16.5664 70.8838 16.9284 71.1104 17.3945C71.3395 17.8607 71.4541 18.4062 71.4541 19.0312C71.4541 19.651 71.3395 20.1927 71.1104 20.6562C70.8838 21.1198 70.5661 21.4805 70.1572 21.7383C69.751 21.9961 69.277 22.125 68.7354 22.125ZM68.7354 21.2969C69.1468 21.2969 69.4854 21.1914 69.751 20.9805C70.0166 20.7695 70.2132 20.4922 70.3408 20.1484C70.4684 19.8047 70.5322 19.4323 70.5322 19.0312C70.5322 18.6302 70.4684 18.2565 70.3408 17.9102C70.2132 17.5638 70.0166 17.2839 69.751 17.0703C69.4854 16.8568 69.1468 16.75 68.7354 16.75C68.3239 16.75 67.9854 16.8568 67.7197 17.0703C67.4541 17.2839 67.2575 17.5638 67.1299 17.9102C67.0023 18.2565 66.9385 18.6302 66.9385 19.0312C66.9385 19.4323 67.0023 19.8047 67.1299 20.1484C67.2575 20.4922 67.4541 20.7695 67.7197 20.9805C67.9854 21.1914 68.3239 21.2969 68.7354 21.2969Z" fill="black"/>
<defs>
<clipPath id="clip0_28_2">
<rect width="670" height="222" fill="white" transform="translate(1320 464)"/>
</clipPath>
<clipPath id="clip1_28_2">
<rect width="670" height="222" fill="white" transform="translate(244 464)"/>
</clipPath>
</defs>
</svg>
