<svg width="701" height="99" viewBox="0 0 701 99" fill="none" xmlns="http://www.w3.org/2000/svg">
<g clip-path="url(#clip0_1_2064)">
<path d="M42.5251 13.7098H19.4308V30.8213H39.4474V43.4354H19.4308V70.4198H0.183716V0H42.5251V13.7098Z" fill="#00B294"/>
<path d="M84.5373 70.4198L82.3362 59.8902H65.3973L63.089 70.4198H44.1711L62.3196 0H85.7469L103.895 70.4198H84.5373ZM68.3717 46.2873H79.3695L73.9797 20.9484L68.3717 46.2873Z" fill="#00B294"/>
<path d="M108.294 0H140.629C151.408 0 156.794 4.53558 156.794 13.6029V22.5977C156.794 28.9582 155.033 33.0929 151.515 34.9942C153.567 35.8723 154.961 37.2085 155.696 38.9991C156.427 40.7935 156.794 43.2216 156.794 46.2949V56.8245C156.794 65.8918 151.404 70.4274 140.629 70.4274H108.294V0ZM137.88 26.4346V15.027C137.88 13.4197 136.961 12.6141 135.132 12.6141H127.212V28.8475H135.132C136.965 28.8475 137.88 28.0419 137.88 26.4346ZM137.88 55.3928V43.8744C137.88 42.2671 136.961 41.4616 135.132 41.4616H127.212V57.8057H135.132C136.965 57.8057 137.88 57.0001 137.88 55.3928Z" fill="#00B294"/>
<path d="M212.335 26.3239H193.087V15.027C193.087 13.4197 192.169 12.6141 190.339 12.6141H186.488C184.654 12.6141 183.74 13.4197 183.74 15.027V55.3928C183.74 57.0039 184.654 57.8057 186.488 57.8057H190.339C192.173 57.8057 193.087 57.0001 193.087 55.3928V44.5349H212.335V56.8207C212.335 65.888 206.945 70.4236 196.169 70.4236H180.662C169.882 70.4236 164.496 65.8918 164.496 56.8207V13.6029C164.496 4.53558 169.886 0 180.662 0H196.169C206.949 0 212.335 4.53558 212.335 13.6029V26.3277V26.3239Z" fill="#00B294"/>
<path d="M235.322 0H251.598C262.378 0 267.764 4.53558 267.764 13.6029V56.8207C267.764 65.888 262.374 70.4236 251.598 70.4236H235.322C224.542 70.4236 219.156 65.8918 219.156 56.8207V13.6029C219.156 4.53558 224.546 0 235.322 0ZM248.517 54.2971V16.1227C248.517 14.5154 247.598 13.7098 245.768 13.7098H241.148C239.314 13.7098 238.399 14.5154 238.399 16.1227V54.2933C238.399 55.9044 239.314 56.7061 241.148 56.7061H245.768C247.602 56.7061 248.517 55.9006 248.517 54.2933V54.2971Z" fill="#00B294"/>
<path d="M308.455 0H326.053V70.4198H309.554L293.829 33.4556V70.4198H276.231V0H292.73L308.455 37.6247V0Z" fill="#00B294"/>
<path d="M0 86.8135H2.66811L6.24345 95.5143H6.38508L9.96042 86.8135H12.6285V98.8205H10.5346V90.5702H10.4236L7.09709 98.7862H5.53527L2.20875 90.5549H2.09774V98.8205H0V86.8135Z" fill="white"/>
<path d="M19.4998 86.8135V98.8205H17.3179V86.8135H19.4998Z" fill="white"/>
<path d="M34.494 90.8642H32.2967C32.2355 90.5053 32.1168 90.1846 31.9484 89.9059C31.7799 89.6272 31.5694 89.3905 31.3206 89.192C31.0679 88.9973 30.7847 88.8484 30.4669 88.7491C30.1492 88.6499 29.8047 88.6002 29.4334 88.6002C28.7788 88.6002 28.197 88.7644 27.6917 89.0889C27.1864 89.4173 26.7921 89.8907 26.505 90.5206C26.2179 91.1467 26.0763 91.9141 26.0763 92.8151C26.0763 93.7161 26.2217 94.5064 26.5088 95.1325C26.7959 95.7587 27.194 96.2321 27.6955 96.5528C28.2008 96.8696 28.775 97.03 29.4257 97.03C29.7856 97.03 30.1263 96.9804 30.4402 96.8849C30.754 96.7895 31.0411 96.6482 31.2938 96.4611C31.5464 96.2741 31.7608 96.045 31.9331 95.7701C32.1053 95.4952 32.2278 95.1822 32.2929 94.8309L34.4902 94.8424C34.4059 95.4151 34.2299 95.9495 33.9581 96.4497C33.6863 96.9498 33.3303 97.3889 32.8901 97.7706C32.4498 98.1524 31.9369 98.4502 31.3512 98.6602C30.7617 98.874 30.1109 98.9809 29.3951 98.9809C28.3386 98.9809 27.3931 98.7366 26.5624 98.2479C25.7317 97.7592 25.0771 97.0529 24.5986 96.1328C24.1201 95.2089 23.8828 94.1055 23.8828 92.8151C23.8828 91.5247 24.124 90.4137 24.6063 89.4936C25.0886 88.5735 25.7432 87.8672 26.5739 87.3785C27.4046 86.8898 28.3462 86.6455 29.3951 86.6455C30.065 86.6455 30.689 86.741 31.2632 86.928C31.8374 87.1151 32.3541 87.39 32.802 87.7527C33.2499 88.1154 33.625 88.5544 33.916 89.0775C34.2069 89.6005 34.3983 90.1923 34.4902 90.8642H34.494Z" fill="white"/>
<path d="M38.8158 98.8205V86.8135H43.329C44.2554 86.8135 45.0325 86.9738 45.6603 87.2945C46.2881 87.6152 46.7666 88.0619 47.0881 88.6384C47.4097 89.2149 47.5743 89.8868 47.5743 90.6542C47.5743 91.4216 47.4097 92.0935 47.0843 92.6547C46.7589 93.2198 46.2766 93.655 45.6411 93.9604C45.0057 94.2659 44.2248 94.4224 43.3022 94.4224H40.0867V92.6166H43.0075C43.5472 92.6166 43.9913 92.5402 44.3358 92.3913C44.6803 92.2424 44.9368 92.021 45.1014 91.727C45.266 91.4369 45.3502 91.078 45.3502 90.6504C45.3502 90.2228 45.266 89.8601 45.0976 89.5585C44.9291 89.2569 44.6727 89.024 44.3281 88.8675C43.9836 88.7071 43.5396 88.6308 42.9922 88.6308H40.994V98.8205H38.812H38.8158ZM45.0363 93.3801L48.0183 98.8205H45.5837L42.6553 93.3801H45.0363Z" fill="white"/>
<path d="M62.6603 92.8151C62.6603 94.1094 62.4191 95.2165 61.933 96.1366C61.4506 97.0567 60.7922 97.763 59.9577 98.2517C59.1232 98.7404 58.1816 98.9847 57.1289 98.9847C56.0762 98.9847 55.1306 98.7404 54.3 98.2479C53.4655 97.7554 52.8071 97.0529 52.3247 96.1328C51.8424 95.2127 51.5974 94.1056 51.5974 92.819C51.5974 91.5323 51.8386 90.4175 52.3247 89.4974C52.8071 88.5774 53.4655 87.8711 54.3 87.3824C55.1345 86.8937 56.0762 86.6494 57.1289 86.6494C58.1816 86.6494 59.1271 86.8937 59.9577 87.3824C60.7922 87.8711 61.4506 88.5735 61.933 89.4974C62.4153 90.4175 62.6603 91.5247 62.6603 92.819V92.8151ZM60.4669 92.8151C60.4669 91.9027 60.3252 91.1353 60.042 90.5092C59.7587 89.883 59.3644 89.4058 58.8629 89.0851C58.3615 88.7644 57.7834 88.6003 57.1289 88.6003C56.4743 88.6003 55.8962 88.7606 55.3948 89.0851C54.8933 89.4058 54.499 89.883 54.2158 90.5092C53.9325 91.1353 53.7909 91.9065 53.7909 92.8151C53.7909 93.7238 53.9325 94.495 54.2158 95.1211C54.499 95.7472 54.8933 96.2245 55.3948 96.5452C55.8962 96.8658 56.4743 97.03 57.1289 97.03C57.7834 97.03 58.3615 96.8697 58.8629 96.5452C59.3644 96.2245 59.7587 95.7472 60.042 95.1211C60.3252 94.495 60.4669 93.7238 60.4669 92.8151Z" fill="white"/>
<path d="M73.5893 90.1121C73.5357 89.6005 73.3022 89.2035 72.9002 88.9171C72.4945 88.6308 71.97 88.4895 71.3231 88.4895C70.8676 88.4895 70.4771 88.5583 70.1517 88.6957C69.8263 88.8332 69.5775 89.0164 69.4053 89.2531C69.233 89.4898 69.145 89.7571 69.1411 90.0549C69.1411 90.3068 69.1986 90.5206 69.3134 90.7077C69.4282 90.891 69.5852 91.0475 69.7881 91.1735C69.9871 91.2995 70.2092 91.4064 70.4541 91.4942C70.6953 91.582 70.9403 91.6507 71.1891 91.7118L72.3184 91.9943C72.7739 92.1012 73.2103 92.2425 73.6314 92.4219C74.0524 92.6013 74.4314 92.8266 74.7645 93.1015C75.0975 93.3764 75.3654 93.7047 75.5607 94.0903C75.7559 94.4759 75.8554 94.9302 75.8554 95.4494C75.8554 96.1519 75.6755 96.7704 75.3157 97.3049C74.9559 97.8394 74.4352 98.2556 73.7539 98.5533C73.0725 98.8511 72.2533 99 71.2886 99C70.324 99 69.5393 98.8549 68.8502 98.5648C68.1612 98.2746 67.6253 97.8547 67.2386 97.2973C66.852 96.7399 66.6453 96.0679 66.6108 95.27H68.7583C68.789 95.69 68.9191 96.0374 69.145 96.3123C69.3708 96.591 69.6694 96.7971 70.0369 96.9346C70.4044 97.072 70.814 97.1407 71.2695 97.1407C71.725 97.1407 72.1614 97.0682 72.5174 96.9269C72.8773 96.7857 73.1567 96.5833 73.3596 96.3275C73.5625 96.0717 73.6658 95.7701 73.6696 95.4265C73.6658 95.1135 73.5739 94.8539 73.394 94.6477C73.2141 94.4415 72.9615 94.2697 72.6399 94.1323C72.3184 93.9949 71.9394 93.8689 71.5068 93.7581L70.1364 93.4069C69.145 93.1511 68.3602 92.7655 67.786 92.2501C67.2118 91.7309 66.9247 91.0437 66.9247 90.1847C66.9247 89.4784 67.1161 88.8561 67.5028 88.3254C67.8894 87.7947 68.4138 87.3786 69.0799 87.0846C69.746 86.7906 70.5001 86.6417 71.3422 86.6417C72.1844 86.6417 72.9462 86.7906 73.5893 87.0846C74.2324 87.3786 74.7415 87.7871 75.109 88.3101C75.4765 88.8332 75.6679 89.4326 75.6793 90.1083H73.5816L73.5893 90.1121Z" fill="white"/>
<path d="M90.8688 92.8151C90.8688 94.1094 90.6276 95.2165 90.1415 96.1366C89.6591 97.0567 89.0007 97.763 88.1662 98.2517C87.3317 98.7404 86.39 98.9847 85.3373 98.9847C84.2847 98.9847 83.3391 98.7404 82.5085 98.2479C81.674 97.7554 81.0156 97.0529 80.5332 96.1328C80.0509 95.2127 79.8059 94.1056 79.8059 92.819C79.8059 91.5323 80.0471 90.4175 80.5332 89.4974C81.0156 88.5774 81.674 87.8711 82.5085 87.3824C83.343 86.8937 84.2847 86.6494 85.3373 86.6494C86.39 86.6494 87.3356 86.8937 88.1662 87.3824C89.0007 87.8711 89.6591 88.5735 90.1415 89.4974C90.6238 90.4175 90.8688 91.5247 90.8688 92.819V92.8151ZM88.6754 92.8151C88.6754 91.9027 88.5337 91.1353 88.2504 90.5092C87.9672 89.883 87.5729 89.4058 87.0714 89.0851C86.57 88.7644 85.9919 88.6003 85.3373 88.6003C84.6828 88.6003 84.1047 88.7606 83.6033 89.0851C83.1018 89.4058 82.7075 89.883 82.4243 90.5092C82.141 91.1353 81.9993 91.9065 81.9993 92.8151C81.9993 93.7238 82.141 94.495 82.4243 95.1211C82.7075 95.7472 83.1018 96.2245 83.6033 96.5452C84.1047 96.8658 84.6828 97.03 85.3373 97.03C85.9919 97.03 86.57 96.8697 87.0714 96.5452C87.5729 96.2245 87.9672 95.7472 88.2504 95.1211C88.5337 94.495 88.6754 93.7238 88.6754 92.8151Z" fill="white"/>
<path d="M95.2556 98.8205V86.8135H102.969V88.6384H97.4376V91.8988H102.441V93.7237H97.4376V98.8244H95.2556V98.8205Z" fill="white"/>
<path d="M106.74 88.6346V86.8097H116.344V88.6346H112.623V98.8206H110.46V88.6346H106.74Z" fill="white"/>
<path d="M137.241 90.8642H135.044C134.982 90.5053 134.864 90.1846 134.695 89.9059C134.527 89.6272 134.316 89.3905 134.068 89.192C133.815 88.9973 133.532 88.8484 133.214 88.7491C132.896 88.6499 132.552 88.6002 132.18 88.6002C131.526 88.6002 130.944 88.7644 130.439 89.0889C129.933 89.4173 129.539 89.8907 129.252 90.5206C128.965 91.1467 128.823 91.9141 128.823 92.8151C128.823 93.7161 128.969 94.5064 129.256 95.1325C129.543 95.7587 129.941 96.2321 130.442 96.5528C130.948 96.8696 131.522 97.03 132.173 97.03C132.533 97.03 132.873 96.9804 133.187 96.8849C133.501 96.7895 133.788 96.6482 134.041 96.4611C134.293 96.2741 134.508 96.045 134.68 95.7701C134.852 95.4952 134.975 95.1822 135.04 94.8309L137.237 94.8424C137.153 95.4151 136.977 95.9495 136.705 96.4497C136.433 96.9498 136.077 97.3889 135.637 97.7706C135.197 98.1524 134.684 98.4502 134.098 98.6602C133.509 98.874 132.858 98.9809 132.142 98.9809C131.086 98.9809 130.14 98.7366 129.309 98.2479C128.479 97.7592 127.824 97.0529 127.346 96.1328C126.867 95.2089 126.63 94.1055 126.63 92.8151C126.63 91.5247 126.871 90.4137 127.353 89.4936C127.836 88.5735 128.49 87.8672 129.321 87.3785C130.152 86.8898 131.093 86.6455 132.142 86.6455C132.812 86.6455 133.436 86.741 134.01 86.928C134.584 87.1151 135.101 87.39 135.549 87.7527C135.997 88.1154 136.372 88.5544 136.663 89.0775C136.954 89.6005 137.145 90.1923 137.237 90.8642H137.241Z" fill="white"/>
<path d="M152.319 92.8151C152.319 94.1094 152.078 95.2165 151.592 96.1366C151.11 97.0567 150.451 97.763 149.617 98.2517C148.782 98.7404 147.841 98.9847 146.788 98.9847C145.735 98.9847 144.79 98.7404 143.959 98.2479C143.125 97.7554 142.466 97.0529 141.984 96.1328C141.501 95.2127 141.256 94.1056 141.256 92.819C141.256 91.5323 141.498 90.4175 141.984 89.4974C142.466 88.5774 143.125 87.8711 143.959 87.3824C144.794 86.8937 145.735 86.6494 146.788 86.6494C147.841 86.6494 148.786 86.8937 149.617 87.3824C150.451 87.8711 151.11 88.5735 151.592 89.4974C152.074 90.4175 152.319 91.5247 152.319 92.819V92.8151ZM150.126 92.8151C150.126 91.9027 149.984 91.1353 149.701 90.5092C149.418 89.883 149.023 89.4058 148.522 89.0851C148.021 88.7644 147.442 88.6003 146.788 88.6003C146.133 88.6003 145.555 88.7606 145.054 89.0851C144.552 89.4058 144.158 89.883 143.875 90.5092C143.592 91.1353 143.45 91.9065 143.45 92.8151C143.45 93.7238 143.592 94.495 143.875 95.1211C144.158 95.7472 144.552 96.2245 145.054 96.5452C145.555 96.8658 146.133 97.03 146.788 97.03C147.442 97.03 148.021 96.8697 148.522 96.5452C149.023 96.2245 149.418 95.7472 149.701 95.1211C149.984 94.495 150.126 93.7238 150.126 92.8151Z" fill="white"/>
<path d="M156.706 86.8135H159.374L162.95 95.5143H163.091L166.667 86.8135H169.335V98.8205H167.241V90.5702H167.13L163.803 98.7862H162.242L158.915 90.5549H158.804V98.8205H156.71V86.8135H156.706Z" fill="white"/>
<path d="M174.028 86.8135H176.696L180.271 95.5143H180.413L183.988 86.8135H186.656V98.8205H184.563V90.5702H184.452L181.125 98.7862H179.563L176.237 90.5549H176.126V98.8205H174.032V86.8135H174.028Z" fill="white"/>
<path d="M198.937 86.8135H201.119V94.6591C201.119 95.5181 200.916 96.274 200.51 96.9269C200.104 97.5797 199.534 98.0875 198.803 98.454C198.072 98.8205 197.214 99.0038 196.234 99.0038C195.254 99.0038 194.393 98.8205 193.658 98.454C192.927 98.0875 192.356 97.5797 191.954 96.9269C191.552 96.274 191.35 95.5181 191.35 94.6591V86.8135H193.532V94.4759C193.532 94.976 193.643 95.4227 193.865 95.8121C194.087 96.2015 194.397 96.5108 194.802 96.7284C195.208 96.946 195.683 97.0605 196.238 97.0605C196.793 97.0605 197.272 96.9498 197.673 96.7284C198.075 96.5069 198.393 96.2015 198.611 95.8121C198.83 95.4227 198.941 94.976 198.941 94.4759V86.8135H198.937Z" fill="white"/>
<path d="M215.703 86.8135V98.8205H213.762L208.089 90.6428H207.99V98.8205H205.808V86.8135H207.76L213.426 94.9989H213.533V86.8135H215.703Z" fill="white"/>
<path d="M222.571 86.8135V98.8205H220.389V86.8135H222.571Z" fill="white"/>
<path d="M226.728 88.6346V86.8097H236.332V88.6346H232.611V98.8206H230.449V88.6346H226.728Z" fill="white"/>
<path d="M239.674 86.8135H242.135L245.079 92.1241H245.198L248.142 86.8135H250.603L246.224 94.3422V98.8205H244.049V94.3422L239.67 86.8135H239.674Z" fill="white"/>
<path d="M271.213 90.8642H269.016C268.954 90.5053 268.836 90.1846 268.667 89.9059C268.499 89.6272 268.288 89.3905 268.039 89.192C267.787 88.9973 267.504 88.8484 267.186 88.7491C266.868 88.6499 266.524 88.6002 266.152 88.6002C265.498 88.6002 264.92 88.7644 264.411 89.0889C263.905 89.4173 263.511 89.8907 263.224 90.5206C262.937 91.1467 262.795 91.9141 262.795 92.8151C262.795 93.7161 262.941 94.5064 263.228 95.1325C263.515 95.7587 263.913 96.2321 264.414 96.5528C264.92 96.8696 265.494 97.03 266.145 97.03C266.504 97.03 266.845 96.9804 267.159 96.8849C267.473 96.7895 267.76 96.6482 268.013 96.4611C268.265 96.2741 268.48 96.045 268.652 95.7701C268.828 95.4952 268.947 95.1822 269.012 94.8309L271.209 94.8424C271.129 95.4151 270.949 95.9495 270.677 96.4497C270.405 96.9498 270.049 97.3889 269.609 97.7706C269.169 98.1524 268.656 98.4502 268.07 98.6602C267.481 98.874 266.83 98.9809 266.114 98.9809C265.057 98.9809 264.112 98.7366 263.281 98.2479C262.451 97.7592 261.796 97.0529 261.318 96.1328C260.839 95.2127 260.602 94.1055 260.602 92.8151C260.602 91.5247 260.843 90.4137 261.325 89.4936C261.807 88.5735 262.462 87.8672 263.293 87.3785C264.123 86.8898 265.065 86.6455 266.114 86.6455C266.784 86.6455 267.408 86.741 267.982 86.928C268.556 87.1151 269.073 87.39 269.521 87.7527C269.973 88.1154 270.344 88.5544 270.635 89.0775C270.926 89.6005 271.117 90.1923 271.209 90.8642H271.213Z" fill="white"/>
<path d="M286.291 92.8151C286.291 94.1094 286.05 95.2165 285.564 96.1366C285.082 97.0567 284.419 97.763 283.589 98.2517C282.754 98.7404 281.813 98.9847 280.76 98.9847C279.707 98.9847 278.762 98.7404 277.931 98.2479C277.096 97.7554 276.438 97.0529 275.956 96.1328C275.473 95.2127 275.228 94.1056 275.228 92.819C275.228 91.5323 275.47 90.4175 275.956 89.4974C276.442 88.5774 277.096 87.8711 277.931 87.3824C278.762 86.8937 279.707 86.6494 280.76 86.6494C281.813 86.6494 282.758 86.8937 283.589 87.3824C284.419 87.8711 285.082 88.5735 285.564 89.4974C286.046 90.4175 286.291 91.5247 286.291 92.819V92.8151ZM284.098 92.8151C284.098 91.9027 283.956 91.1353 283.673 90.5092C283.39 89.883 282.995 89.4058 282.494 89.0851C281.992 88.7644 281.414 88.6003 280.76 88.6003C280.105 88.6003 279.527 88.7606 279.026 89.0851C278.524 89.4058 278.13 89.883 277.847 90.5092C277.563 91.1353 277.422 91.9065 277.422 92.8151C277.422 93.7238 277.563 94.495 277.847 95.1211C278.13 95.7472 278.524 96.2245 279.026 96.5452C279.527 96.8658 280.105 97.03 280.76 97.03C281.414 97.03 281.992 96.8697 282.494 96.5452C282.995 96.2206 283.39 95.7472 283.673 95.1211C283.956 94.495 284.098 93.7238 284.098 92.8151Z" fill="white"/>
<path d="M300.573 86.8135V98.8205H298.633L292.96 90.6428H292.86V98.8205H290.678V86.8135H292.63L298.296 94.9989H298.403V86.8135H300.573Z" fill="white"/>
<path d="M305.259 98.8205V86.8135H312.972V88.6384H307.441V91.8988H312.444V93.7237H307.441V98.8244H305.259V98.8205Z" fill="white"/>
<path d="M317.271 98.8205V86.8135H325.103V88.6384H319.453V91.8988H324.697V93.7237H319.453V96.9994H325.149V98.8244H317.271V98.8205Z" fill="white"/>
<path d="M329.647 98.8205V86.8135H334.16C335.087 86.8135 335.864 86.9738 336.491 87.2945C337.119 87.6152 337.598 88.0619 337.919 88.6384C338.241 89.2149 338.405 89.8868 338.405 90.6542C338.405 91.4216 338.241 92.0935 337.915 92.6547C337.586 93.2198 337.108 93.655 336.472 93.9604C335.837 94.2659 335.056 94.4224 334.133 94.4224H330.918V92.6166H333.839C334.378 92.6166 334.822 92.5402 335.167 92.3913C335.511 92.2424 335.768 92.021 335.933 91.727C336.101 91.4369 336.181 91.078 336.181 90.6504C336.181 90.2228 336.097 89.8601 335.929 89.5585C335.76 89.2569 335.504 89.024 335.159 88.8675C334.815 88.7071 334.371 88.6308 333.823 88.6308H331.825V98.8205H329.643H329.647ZM335.864 93.3801L338.846 98.8205H336.411L333.483 93.3801H335.864Z" fill="white"/>
<path d="M342.735 98.8205V86.8135H350.567V88.6384H344.917V91.8988H350.161V93.7237H344.917V96.9994H350.613V98.8244H342.735V98.8205Z" fill="white"/>
<path d="M365.002 86.8135V98.8205H363.062L357.388 90.6428H357.289V98.8205H355.107V86.8135H357.059L362.725 94.9989H362.832V86.8135H365.002Z" fill="white"/>
<path d="M379.997 90.8642H377.799C377.738 90.5053 377.619 90.1846 377.451 89.9059C377.283 89.6272 377.072 89.3905 376.823 89.192C376.571 88.9973 376.287 88.8484 375.969 88.7491C375.652 88.6499 375.307 88.6002 374.936 88.6002C374.281 88.6002 373.703 88.7644 373.194 89.0889C372.689 89.4173 372.295 89.8907 372.008 90.5206C371.72 91.1467 371.579 91.9141 371.579 92.8151C371.579 93.7161 371.724 94.5064 372.011 95.1325C372.298 95.7587 372.697 96.2321 373.198 96.5528C373.703 96.8696 374.278 97.03 374.928 97.03C375.288 97.03 375.629 96.9804 375.943 96.8849C376.257 96.7895 376.544 96.6482 376.796 96.4611C377.049 96.2741 377.263 96.045 377.436 95.7701C377.612 95.4952 377.73 95.1822 377.795 94.8309L379.993 94.8424C379.912 95.4151 379.732 95.9495 379.461 96.4497C379.189 96.9498 378.833 97.3889 378.393 97.7706C377.952 98.1524 377.439 98.4502 376.854 98.6602C376.264 98.874 375.613 98.9809 374.898 98.9809C373.841 98.9809 372.896 98.7366 372.065 98.2479C371.234 97.7592 370.58 97.0529 370.101 96.1328C369.623 95.2127 369.385 94.1055 369.385 92.8151C369.385 91.5247 369.627 90.4137 370.109 89.4936C370.591 88.5735 371.246 87.8672 372.076 87.3785C372.907 86.8898 373.849 86.6455 374.898 86.6455C375.568 86.6455 376.192 86.741 376.766 86.928C377.34 87.1151 377.857 87.39 378.305 87.7527C378.756 88.1154 379.128 88.5544 379.419 89.0775C379.709 89.6005 379.901 90.1923 379.993 90.8642H379.997Z" fill="white"/>
<path d="M384.318 98.8205V86.8135H392.15V88.6384H386.5V91.8988H391.745V93.7237H386.5V96.9994H392.196V98.8244H384.318V98.8205Z" fill="white"/>
<path d="M410.762 54.2971V44.3173C410.762 42.71 409.843 41.9045 408.014 41.9045H397.456C392.028 41.9045 388.2 40.7171 385.964 38.3386C383.725 35.9639 382.611 32.5432 382.611 28.0839V13.6068C382.611 4.53942 387.963 0.00384521 398.669 0.00384521H413.736C424.439 0.00384521 429.795 4.53942 429.795 13.6068V22.0518H410.548V16.1303C410.548 14.523 409.629 13.7175 407.799 13.7175H404.611C402.777 13.7175 401.862 14.523 401.862 16.1303V26.5492C401.862 28.1565 402.777 28.962 404.611 28.962H414.95C420.374 28.962 424.244 30.0959 426.553 32.3637C428.861 34.6315 430.017 37.9568 430.017 42.3473V56.8245C430.017 65.8919 424.665 70.4274 413.958 70.4274H399.003C388.223 70.4274 382.837 65.8957 382.837 56.8245V48.3795H402.084V54.3009C402.084 55.9121 402.999 56.7138 404.833 56.7138H408.021C409.855 56.7138 410.77 55.9082 410.77 54.3009L410.762 54.2971Z" fill="#1360A8"/>
<path d="M453.544 70.4198C442.764 70.4198 437.378 65.888 437.378 56.8169V13.6029C437.378 4.53558 442.768 0 453.544 0H469.82C480.6 0 485.986 4.53558 485.986 13.6029V56.8207C485.986 61.3563 484.627 64.7579 481.917 67.0219L492.145 77.8798H470.26L463.332 70.4198H453.544ZM456.625 16.1227V54.2933C456.625 55.9044 457.54 56.7061 459.374 56.7061H463.994C465.828 56.7061 466.743 55.9006 466.743 54.2933V16.1227C466.743 14.5154 465.824 13.7098 463.994 13.7098H459.374C457.54 13.7098 456.625 14.5154 456.625 16.1227Z" fill="#1360A8"/>
<path d="M513.704 56.71H535.589V70.4198H494.457V0H513.704V56.71Z" fill="#1360A8"/>
<path d="M587.278 26.3239H568.031V15.027C568.031 13.4197 567.112 12.6141 565.283 12.6141H561.432C559.598 12.6141 558.683 13.4197 558.683 15.027V55.3928C558.683 57.0039 559.598 57.8057 561.432 57.8057H565.283C567.116 57.8057 568.031 57.0001 568.031 55.3928V44.5349H587.278V56.8207C587.278 65.888 581.888 70.4236 571.113 70.4236H555.605C544.826 70.4236 539.44 65.8918 539.44 56.8207V13.6029C539.44 4.53558 544.83 0 555.605 0H571.113C581.892 0 587.278 4.53558 587.278 13.6029V26.3277V26.3239Z" fill="#1360A8"/>
<path d="M610.265 0H626.542C637.321 0 642.707 4.53558 642.707 13.6029V56.8207C642.707 65.888 637.318 70.4236 626.542 70.4236H610.265C599.486 70.4236 594.1 65.8918 594.1 56.8207V13.6029C594.1 4.53558 599.489 0 610.265 0ZM623.464 54.2971V16.1227C623.464 14.5154 622.545 13.7098 620.716 13.7098H616.095C614.262 13.7098 613.347 14.5154 613.347 16.1227V54.2933C613.347 55.9044 614.262 56.7061 616.095 56.7061H620.716C622.549 56.7061 623.464 55.9006 623.464 54.2933V54.2971Z" fill="#1360A8"/>
<path d="M683.403 0H701V70.4198H684.501L668.776 33.4556V70.4198H651.179V0H667.677L683.403 37.6247V0Z" fill="#1360A8"/>
<mask id="mask0_1_2064" style="mask-type:luminance" maskUnits="userSpaceOnUse" x="337" y="41" width="31" height="28">
<path d="M367.931 51.2543V59.0541H357.921V68.7247H347.727V59.0541H337.716V51.2543H347.727V41.5837H357.921V51.2543H367.931Z" fill="white"/>
</mask>
<g mask="url(#mask0_1_2064)">
<path d="M338.084 41.5837H337.716V68.7208H338.084V41.5837Z" fill="#00B294"/>
<path d="M338.455 41.5837H338.088V68.7208H338.455V41.5837Z" fill="#00B194"/>
<path d="M338.823 41.5837H338.455V68.7208H338.823V41.5837Z" fill="#00B094"/>
<path d="M339.19 41.5837H338.823V68.7208H339.19V41.5837Z" fill="#01AF95"/>
<path d="M339.558 41.5837H339.19V68.7208H339.558V41.5837Z" fill="#01AE95"/>
<path d="M339.925 41.5837H339.558V68.7208H339.925V41.5837Z" fill="#01AD95"/>
<path d="M340.293 41.5837H339.925V68.7208H340.293V41.5837Z" fill="#01AC95"/>
<path d="M340.664 41.5837H340.297V68.7208H340.664V41.5837Z" fill="#02AB96"/>
<path d="M341.031 41.5837H340.664V68.7208H341.031V41.5837Z" fill="#02AA96"/>
<path d="M341.399 41.5837H341.031V68.7208H341.399V41.5837Z" fill="#02A996"/>
<path d="M341.766 41.5837H341.399V68.7208H341.766V41.5837Z" fill="#02A896"/>
<path d="M342.134 41.5837H341.766V68.7208H342.134V41.5837Z" fill="#03A797"/>
<path d="M342.501 41.5837H342.134V68.7208H342.501V41.5837Z" fill="#03A697"/>
<path d="M342.869 41.5837H342.501V68.7208H342.869V41.5837Z" fill="#03A597"/>
<path d="M343.24 41.5837H342.873V68.7208H343.24V41.5837Z" fill="#03A497"/>
<path d="M343.608 41.5837H343.24V68.7208H343.608V41.5837Z" fill="#04A398"/>
<path d="M343.975 41.5837H343.608V68.7208H343.975V41.5837Z" fill="#04A298"/>
<path d="M344.343 41.5837H343.975V68.7208H344.343V41.5837Z" fill="#04A198"/>
<path d="M344.71 41.5837H344.343V68.7208H344.71V41.5837Z" fill="#04A098"/>
<path d="M345.078 41.5837H344.71V68.7208H345.078V41.5837Z" fill="#049F99"/>
<path d="M345.449 41.5837H345.081V68.7208H345.449V41.5837Z" fill="#059E99"/>
<path d="M345.816 41.5837H345.449V68.7208H345.816V41.5837Z" fill="#059D99"/>
<path d="M346.184 41.5837H345.816V68.7208H346.184V41.5837Z" fill="#059C99"/>
<path d="M346.551 41.5837H346.184V68.7208H346.551V41.5837Z" fill="#059B9A"/>
<path d="M346.919 41.5837H346.551V68.7208H346.919V41.5837Z" fill="#069A9A"/>
<path d="M347.286 41.5837H346.919V68.7208H347.286V41.5837Z" fill="#06999A"/>
<path d="M347.658 41.5837H347.29V68.7208H347.658V41.5837Z" fill="#06989A"/>
<path d="M348.025 41.5837H347.658V68.7208H348.025V41.5837Z" fill="#06979B"/>
<path d="M348.393 41.5837H348.025V68.7208H348.393V41.5837Z" fill="#07969B"/>
<path d="M348.76 41.5837H348.393V68.7208H348.76V41.5837Z" fill="#07959B"/>
<path d="M349.128 41.5837H348.76V68.7208H349.128V41.5837Z" fill="#07949B"/>
<path d="M349.495 41.5837H349.128V68.7208H349.495V41.5837Z" fill="#07939C"/>
<path d="M349.866 41.5837H349.499V68.7208H349.866V41.5837Z" fill="#08929C"/>
<path d="M350.234 41.5837H349.866V68.7208H350.234V41.5837Z" fill="#08919C"/>
<path d="M350.602 41.5837H350.234V68.7208H350.602V41.5837Z" fill="#08909C"/>
<path d="M350.969 41.5837H350.601V68.7208H350.969V41.5837Z" fill="#088F9D"/>
<path d="M351.336 41.5837H350.969V68.7208H351.336V41.5837Z" fill="#088E9D"/>
<path d="M351.704 41.5837H351.336V68.7208H351.704V41.5837Z" fill="#098D9D"/>
<path d="M352.071 41.5837H351.704V68.7208H352.071V41.5837Z" fill="#098C9D"/>
<path d="M352.443 41.5837H352.075V68.7208H352.443V41.5837Z" fill="#098B9E"/>
<path d="M352.81 41.5837H352.443V68.7208H352.81V41.5837Z" fill="#098A9E"/>
<path d="M353.178 41.5837H352.81V68.7208H353.178V41.5837Z" fill="#0A889E"/>
<path d="M353.545 41.5837H353.178V68.7208H353.545V41.5837Z" fill="#0A879E"/>
<path d="M353.913 41.5837H353.545V68.7208H353.913V41.5837Z" fill="#0A869F"/>
<path d="M354.28 41.5837H353.913V68.7208H354.28V41.5837Z" fill="#0A859F"/>
<path d="M354.651 41.5837H354.284V68.7208H354.651V41.5837Z" fill="#0B849F"/>
<path d="M355.019 41.5837H354.651V68.7208H355.019V41.5837Z" fill="#0B839F"/>
<path d="M355.386 41.5837H355.019V68.7208H355.386V41.5837Z" fill="#0B82A0"/>
<path d="M355.754 41.5837H355.386V68.7208H355.754V41.5837Z" fill="#0B81A0"/>
<path d="M356.121 41.5837H355.754V68.7208H356.121V41.5837Z" fill="#0B80A0"/>
<path d="M356.489 41.5837H356.121V68.7208H356.489V41.5837Z" fill="#0C7FA0"/>
<path d="M356.86 41.5837H356.493V68.7208H356.86V41.5837Z" fill="#0C7EA1"/>
<path d="M357.228 41.5837H356.86V68.7208H357.228V41.5837Z" fill="#0C7DA1"/>
<path d="M357.595 41.5837H357.228V68.7208H357.595V41.5837Z" fill="#0C7CA1"/>
<path d="M357.963 41.5837H357.595V68.7208H357.963V41.5837Z" fill="#0D7BA1"/>
<path d="M358.33 41.5837H357.963V68.7208H358.33V41.5837Z" fill="#0D7AA2"/>
<path d="M358.698 41.5837H358.33V68.7208H358.698V41.5837Z" fill="#0D79A2"/>
<path d="M359.069 41.5837H358.701V68.7208H359.069V41.5837Z" fill="#0D78A2"/>
<path d="M359.436 41.5837H359.069V68.7208H359.436V41.5837Z" fill="#0E77A2"/>
<path d="M359.804 41.5837H359.436V68.7208H359.804V41.5837Z" fill="#0E76A3"/>
<path d="M360.171 41.5837H359.804V68.7208H360.171V41.5837Z" fill="#0E75A3"/>
<path d="M360.539 41.5837H360.171V68.7208H360.539V41.5837Z" fill="#0E74A3"/>
<path d="M360.906 41.5837H360.539V68.7208H360.906V41.5837Z" fill="#0F73A3"/>
<path d="M361.274 41.5837H360.906V68.7208H361.274V41.5837Z" fill="#0F72A4"/>
<path d="M361.645 41.5837H361.278V68.7208H361.645V41.5837Z" fill="#0F71A4"/>
<path d="M362.013 41.5837H361.645V68.7208H362.013V41.5837Z" fill="#0F70A4"/>
<path d="M362.38 41.5837H362.013V68.7208H362.38V41.5837Z" fill="#0F6FA4"/>
<path d="M362.748 41.5837H362.38V68.7208H362.748V41.5837Z" fill="#106EA5"/>
<path d="M363.115 41.5837H362.748V68.7208H363.115V41.5837Z" fill="#106DA5"/>
<path d="M363.483 41.5837H363.115V68.7208H363.483V41.5837Z" fill="#106CA5"/>
<path d="M363.854 41.5837H363.486V68.7208H363.854V41.5837Z" fill="#106BA5"/>
<path d="M364.221 41.5837H363.854V68.7208H364.221V41.5837Z" fill="#116AA6"/>
<path d="M364.589 41.5837H364.221V68.7208H364.589V41.5837Z" fill="#1169A6"/>
<path d="M364.956 41.5837H364.589V68.7208H364.956V41.5837Z" fill="#1168A6"/>
<path d="M365.324 41.5837H364.956V68.7208H365.324V41.5837Z" fill="#1167A6"/>
<path d="M365.691 41.5837H365.324V68.7208H365.691V41.5837Z" fill="#1266A7"/>
<path d="M366.063 41.5837H365.695V68.7208H366.063V41.5837Z" fill="#1265A7"/>
<path d="M366.43 41.5837H366.063V68.7208H366.43V41.5837Z" fill="#1264A7"/>
<path d="M366.798 41.5837H366.43V68.7208H366.798V41.5837Z" fill="#1263A7"/>
<path d="M367.165 41.5837H366.798V68.7208H367.165V41.5837Z" fill="#1362A8"/>
<path d="M367.533 41.5837H367.165V68.7208H367.533V41.5837Z" fill="#1361A8"/>
<path d="M367.9 41.5837H367.533V68.7208H367.9V41.5837Z" fill="#1360A8"/>
<path d="M367.931 41.5837H367.9V68.7208H367.931V41.5837Z" fill="#1360A8"/>
</g>
</g>
<defs>
<clipPath id="clip0_1_2064">
<rect width="701" height="99" fill="white"/>
</clipPath>
</defs>
</svg>
