<svg width="384" height="189" viewBox="0 0 384 189" fill="none" xmlns="http://www.w3.org/2000/svg" shape-rendering="geometricPrecision" text-rendering="geometricPrecision">
<g clip-path="url(#clip0_1_1808)">
<path d="M46.3064 14.8068H21.4384V33.2875H42.9923V46.9109H21.4384V76.0544H0.708984V0H46.3023V14.8068H46.3064Z" fill="#00B294"/>
<path d="M91.5452 76.0544L89.175 64.6823H70.9353L68.4497 76.0544H48.0789L67.6212 0H92.8477L112.39 76.0544H91.5452ZM74.1339 49.991H85.9764L80.1726 22.6246L74.1339 49.991Z" fill="#00B294"/>
<path d="M117.122 0H151.94C163.548 0 169.348 4.89849 169.348 14.6913V24.4059C169.348 31.2753 167.451 35.7408 163.663 37.7942C165.873 38.7426 167.373 40.1816 168.165 42.1196C168.952 44.0575 169.348 46.68 169.348 49.9992V61.3713C169.348 71.1641 163.544 76.0626 151.94 76.0626H117.122V0ZM148.981 28.5498V16.2293C148.981 14.4934 147.992 13.6234 146.021 13.6234H137.493V31.1557H146.021C147.996 31.1557 148.981 30.2857 148.981 28.5498ZM148.981 59.8251V47.385C148.981 45.6491 147.992 44.7791 146.021 44.7791H137.493V62.431H146.021C147.996 62.431 148.981 61.561 148.981 59.8251Z" fill="#00B294"/>
<path d="M229.158 28.4302H208.432V16.2293C208.432 14.4934 207.443 13.6234 205.473 13.6234H201.326C199.352 13.6234 198.366 14.4934 198.366 16.2293V59.8251C198.366 61.561 199.352 62.431 201.326 62.431H205.473C207.447 62.431 208.432 61.561 208.432 59.8251V48.0984H229.158V61.3672C229.158 71.16 223.354 76.0585 211.75 76.0585H195.052C183.445 76.0585 177.645 71.1641 177.645 61.3672V14.6913C177.645 4.89849 183.449 0 195.052 0H211.75C223.358 0 229.158 4.89849 229.158 14.6913V28.4343V28.4302Z" fill="#00B294"/>
<path d="M253.906 0H271.433C283.04 0 288.84 4.89849 288.84 14.6913V61.3672C288.84 71.16 283.036 76.0585 271.433 76.0585H253.906C242.299 76.0585 236.499 71.1641 236.499 61.3672V14.6913C236.499 4.89849 242.303 0 253.906 0ZM268.119 58.6417V17.4127C268.119 15.6768 267.129 14.8068 265.159 14.8068H260.184C258.209 14.8068 257.224 15.6768 257.224 17.4127V58.6375C257.224 60.3735 258.209 61.2435 260.184 61.2435H265.159C267.134 61.2435 268.119 60.3735 268.119 58.6375V58.6417Z" fill="#00B294"/>
<path d="M332.661 0H351.609V76.0544H333.844L316.911 36.1325V76.0544H297.962V0H315.728L332.661 40.6352V0Z" fill="#00B294"/>
<mask id="mask0_1_1808" style="mask-type:luminance" maskUnits="userSpaceOnUse" x="362" y="56" width="22" height="21">
<path d="M384 63.503V69.1726H376.745V76.2028H369.359V69.1726H362.104V63.503H369.359V56.4728H376.745V63.503H384Z" fill="white"/>
</mask>
<g mask="url(#mask0_1_1808)">
<path d="M362.376 56.4728H362.108V76.1987H362.376V56.4728Z" fill="#00B294"/>
<path d="M362.644 56.4728H362.376V76.1987H362.644V56.4728Z" fill="#00B194"/>
<path d="M362.908 56.4728H362.64V76.1987H362.908V56.4728Z" fill="#00B094"/>
<path d="M363.176 56.4728H362.908V76.1987H363.176V56.4728Z" fill="#01AF95"/>
<path d="M363.444 56.4728H363.176V76.1987H363.444V56.4728Z" fill="#01AE95"/>
<path d="M363.707 56.4728H363.44V76.1987H363.707V56.4728Z" fill="#01AD95"/>
<path d="M363.975 56.4728H363.707V76.1987H363.975V56.4728Z" fill="#01AC95"/>
<path d="M364.243 56.4728H363.975V76.1987H364.243V56.4728Z" fill="#02AB96"/>
<path d="M364.511 56.4728H364.243V76.1987H364.511V56.4728Z" fill="#02AA96"/>
<path d="M364.775 56.4728H364.507V76.1987H364.775V56.4728Z" fill="#02A996"/>
<path d="M365.043 56.4728H364.775V76.1987H365.043V56.4728Z" fill="#02A896"/>
<path d="M365.311 56.4728H365.043V76.1987H365.311V56.4728Z" fill="#03A797"/>
<path d="M365.575 56.4728H365.307V76.1987H365.575V56.4728Z" fill="#03A697"/>
<path d="M365.843 56.4728H365.575V76.1987H365.843V56.4728Z" fill="#03A597"/>
<path d="M366.111 56.4728H365.843V76.1987H366.111V56.4728Z" fill="#03A497"/>
<path d="M366.379 56.4728H366.111V76.1987H366.379V56.4728Z" fill="#04A398"/>
<path d="M366.642 56.4728H366.374V76.1987H366.642V56.4728Z" fill="#04A298"/>
<path d="M366.91 56.4728H366.642V76.1987H366.91V56.4728Z" fill="#04A198"/>
<path d="M367.178 56.4728H366.91V76.1987H367.178V56.4728Z" fill="#04A098"/>
<path d="M367.442 56.4728H367.174V76.1987H367.442V56.4728Z" fill="#049F99"/>
<path d="M367.71 56.4728H367.442V76.1987H367.71V56.4728Z" fill="#059E99"/>
<path d="M367.978 56.4728H367.71V76.1987H367.978V56.4728Z" fill="#059D99"/>
<path d="M368.246 56.4728H367.978V76.1987H368.246V56.4728Z" fill="#059C99"/>
<path d="M368.51 56.4728H368.242V76.1987H368.51V56.4728Z" fill="#059B9A"/>
<path d="M368.777 56.4728H368.51V76.1987H368.777V56.4728Z" fill="#069A9A"/>
<path d="M369.045 56.4728H368.777V76.1987H369.045V56.4728Z" fill="#06999A"/>
<path d="M369.309 56.4728H369.041V76.1987H369.309V56.4728Z" fill="#06989A"/>
<path d="M369.577 56.4728H369.309V76.1987H369.577V56.4728Z" fill="#06979B"/>
<path d="M369.845 56.4728H369.577V76.1987H369.845V56.4728Z" fill="#07969B"/>
<path d="M370.113 56.4728H369.845V76.1987H370.113V56.4728Z" fill="#07959B"/>
<path d="M370.377 56.4728H370.109V76.1987H370.377V56.4728Z" fill="#07949B"/>
<path d="M370.645 56.4728H370.377V76.1987H370.645V56.4728Z" fill="#07939C"/>
<path d="M370.913 56.4728H370.645V76.1987H370.913V56.4728Z" fill="#08929C"/>
<path d="M371.176 56.4728H370.909V76.1987H371.176V56.4728Z" fill="#08919C"/>
<path d="M371.444 56.4728H371.177V76.1987H371.444V56.4728Z" fill="#08909C"/>
<path d="M371.712 56.4728H371.444V76.1987H371.712V56.4728Z" fill="#088F9D"/>
<path d="M371.98 56.4728H371.712V76.1987H371.98V56.4728Z" fill="#088E9D"/>
<path d="M372.244 56.4728H371.976V76.1987H372.244V56.4728Z" fill="#098D9D"/>
<path d="M372.512 56.4728H372.244V76.1987H372.512V56.4728Z" fill="#098C9D"/>
<path d="M372.78 56.4728H372.512V76.1987H372.78V56.4728Z" fill="#098B9E"/>
<path d="M373.044 56.4728H372.776V76.1987H373.044V56.4728Z" fill="#098A9E"/>
<path d="M373.312 56.4728H373.044V76.1987H373.312V56.4728Z" fill="#0A889E"/>
<path d="M373.58 56.4728H373.312V76.1987H373.58V56.4728Z" fill="#0A879E"/>
<path d="M373.848 56.4728H373.58V76.1987H373.848V56.4728Z" fill="#0A869F"/>
<path d="M374.111 56.4728H373.843V76.1987H374.111V56.4728Z" fill="#0A859F"/>
<path d="M374.379 56.4728H374.111V76.1987H374.379V56.4728Z" fill="#0B849F"/>
<path d="M374.647 56.4728H374.379V76.1987H374.647V56.4728Z" fill="#0B839F"/>
<path d="M374.911 56.4728H374.643V76.1987H374.911V56.4728Z" fill="#0B82A0"/>
<path d="M375.179 56.4728H374.911V76.1987H375.179V56.4728Z" fill="#0B81A0"/>
<path d="M375.447 56.4728H375.179V76.1987H375.447V56.4728Z" fill="#0B80A0"/>
<path d="M375.715 56.4728H375.447V76.1987H375.715V56.4728Z" fill="#0C7FA0"/>
<path d="M375.979 56.4728H375.711V76.1987H375.979V56.4728Z" fill="#0C7EA1"/>
<path d="M376.247 56.4728H375.979V76.1987H376.247V56.4728Z" fill="#0C7DA1"/>
<path d="M376.514 56.4728H376.247V76.1987H376.514V56.4728Z" fill="#0C7CA1"/>
<path d="M376.778 56.4728H376.51V76.1987H376.778V56.4728Z" fill="#0D7BA1"/>
<path d="M377.046 56.4728H376.778V76.1987H377.046V56.4728Z" fill="#0D7AA2"/>
<path d="M377.314 56.4728H377.046V76.1987H377.314V56.4728Z" fill="#0D79A2"/>
<path d="M377.582 56.4728H377.314V76.1987H377.582V56.4728Z" fill="#0D78A2"/>
<path d="M377.846 56.4728H377.578V76.1987H377.846V56.4728Z" fill="#0E77A2"/>
<path d="M378.114 56.4728H377.846V76.1987H378.114V56.4728Z" fill="#0E76A3"/>
<path d="M378.382 56.4728H378.114V76.1987H378.382V56.4728Z" fill="#0E75A3"/>
<path d="M378.645 56.4728H378.378V76.1987H378.645V56.4728Z" fill="#0E74A3"/>
<path d="M378.913 56.4728H378.646V76.1987H378.913V56.4728Z" fill="#0F73A3"/>
<path d="M379.181 56.4728H378.913V76.1987H379.181V56.4728Z" fill="#0F72A4"/>
<path d="M379.449 56.4728H379.181V76.1987H379.449V56.4728Z" fill="#0F71A4"/>
<path d="M379.713 56.4728H379.445V76.1987H379.713V56.4728Z" fill="#0F70A4"/>
<path d="M379.981 56.4728H379.713V76.1987H379.981V56.4728Z" fill="#0F6FA4"/>
<path d="M380.249 56.4728H379.981V76.1987H380.249V56.4728Z" fill="#106EA5"/>
<path d="M380.513 56.4728H380.245V76.1987H380.513V56.4728Z" fill="#106DA5"/>
<path d="M380.781 56.4728H380.513V76.1987H380.781V56.4728Z" fill="#106CA5"/>
<path d="M381.049 56.4728H380.781V76.1987H381.049V56.4728Z" fill="#106BA5"/>
<path d="M381.317 56.4728H381.049V76.1987H381.317V56.4728Z" fill="#116AA6"/>
<path d="M381.58 56.4728H381.312V76.1987H381.58V56.4728Z" fill="#1169A6"/>
<path d="M381.848 56.4728H381.58V76.1987H381.848V56.4728Z" fill="#1168A6"/>
<path d="M382.116 56.4728H381.848V76.1987H382.116V56.4728Z" fill="#1167A6"/>
<path d="M382.38 56.4728H382.112V76.1987H382.38V56.4728Z" fill="#1266A7"/>
<path d="M382.648 56.4728H382.38V76.1987H382.648V56.4728Z" fill="#1265A7"/>
<path d="M382.916 56.4728H382.648V76.1987H382.916V56.4728Z" fill="#1264A7"/>
<path d="M383.184 56.4728H382.916V76.1987H383.184V56.4728Z" fill="#1263A7"/>
<path d="M383.448 56.4728H383.18V76.1987H383.448V56.4728Z" fill="#1362A8"/>
<path d="M383.716 56.4728H383.448V76.1987H383.716V56.4728Z" fill="#1361A8"/>
<path d="M383.983 56.4728H383.716V76.1987H383.983V56.4728Z" fill="#1360A8"/>
<path d="M384 56.4728H383.979V76.1987H384V56.4728Z" fill="#1360A8"/>
</g>
<path d="M229.232 112.941H208.506V100.741C208.506 99.0047 207.517 98.1347 205.547 98.1347H201.4C199.426 98.1347 198.441 99.0047 198.441 100.741V144.336C198.441 146.072 199.426 146.942 201.4 146.942H205.547C207.521 146.942 208.506 146.072 208.506 144.336V132.61H229.232V145.878C229.232 155.671 223.428 160.57 211.825 160.57H195.127C183.519 160.57 177.719 155.675 177.719 145.878V99.2026C177.719 89.4098 183.523 84.5113 195.127 84.5113H211.825C223.432 84.5113 229.232 89.4098 229.232 99.2026V112.946V112.941Z" fill="#1360A8"/>
<path d="M253.98 84.5113H271.507C283.114 84.5113 288.914 89.4098 288.914 99.2026V145.878C288.914 155.671 283.11 160.57 271.507 160.57H253.98C242.373 160.57 236.573 155.675 236.573 145.878V99.2026C236.573 89.4098 242.377 84.5113 253.98 84.5113ZM268.193 143.149V101.924C268.193 100.188 267.204 99.3181 265.233 99.3181H260.258C258.284 99.3181 257.298 100.188 257.298 101.924V143.149C257.298 144.885 258.284 145.755 260.258 145.755H265.233C267.208 145.755 268.193 144.885 268.193 143.149Z" fill="#1360A8"/>
<path d="M332.735 84.5113H351.684V160.566H333.918L316.985 120.644V160.566H298.036V84.5113H315.802L332.735 125.146V84.5113Z" fill="#1360A8"/>
<path d="M30.3172 143.149V132.366C30.3172 130.63 29.328 129.76 27.3576 129.76H15.9892C10.1442 129.76 6.02225 128.478 3.61501 125.909C1.20777 123.345 0.00415039 119.65 0.00415039 114.834V99.1985C0.00415039 89.4057 5.76669 84.5072 17.2959 84.5072H33.52C45.0451 84.5072 50.8117 89.4057 50.8117 99.1985V108.319H30.0864V101.924C30.0864 100.188 29.0971 99.3181 27.1268 99.3181H23.6932C21.7188 99.3181 20.7336 100.188 20.7336 101.924V113.177C20.7336 114.917 21.7188 115.782 23.6932 115.782H34.8267C40.6675 115.782 44.8349 117.007 47.3204 119.456C49.806 121.906 51.0508 125.497 51.0508 130.235V145.87C51.0508 155.663 45.2883 160.562 33.7591 160.562H17.6545C6.04698 160.562 0.247348 155.667 0.247348 145.87V136.749H20.9727V143.145C20.9727 144.881 21.9578 145.751 23.9323 145.751H27.3659C29.3403 145.751 30.3255 144.881 30.3255 143.145L30.3172 143.149Z" fill="#1360A8"/>
<path d="M78.9895 160.566C67.382 160.566 61.5824 155.671 61.5824 145.874V99.1985C61.5824 89.4057 67.3862 84.5072 78.9895 84.5072H96.5162C108.124 84.5072 113.923 89.4057 113.923 99.1985V145.874C113.923 150.773 112.46 154.447 109.542 156.892L120.556 168.618H96.9902L89.5295 160.562H78.9895V160.566ZM82.3077 101.924V143.149C82.3077 144.885 83.2929 145.755 85.2673 145.755H90.2426C92.217 145.755 93.2021 144.885 93.2021 143.149V101.924C93.2021 100.188 92.2129 99.3181 90.2426 99.3181H85.2673C83.2929 99.3181 82.3077 100.188 82.3077 101.924Z" fill="#1360A8"/>
<path d="M146.376 145.759H169.941V160.566H125.651V84.5113H146.376V145.759Z" fill="#1360A8"/>
<path d="M0.48645 178.048H2.8772L6.07998 185.866H6.20777L9.41055 178.048H11.8013V188.839H9.9258V181.425H9.82687L6.84667 188.806H5.4452L2.465 181.409H2.36608V188.839H0.48645V178.048Z" fill="white"/>
<path d="M17.9594 178.048V188.839H16.0056V178.048H17.9594Z" fill="white"/>
<path d="M31.3889 181.685H29.4186C29.3609 181.364 29.2579 181.075 29.1095 180.823C28.957 180.572 28.7715 180.358 28.5448 180.184C28.3181 180.007 28.0625 179.875 27.7781 179.789C27.4937 179.698 27.1845 179.652 26.8548 179.652C26.2694 179.652 25.7501 179.801 25.2966 180.094C24.8432 180.386 24.4887 180.815 24.2332 181.38C23.9776 181.945 23.8498 182.629 23.8498 183.442C23.8498 184.254 23.9776 184.963 24.2373 185.524C24.497 186.085 24.8515 186.514 25.3008 186.798C25.7501 187.083 26.2694 187.227 26.8506 187.227C27.1721 187.227 27.4772 187.186 27.7575 187.099C28.0419 187.013 28.2933 186.885 28.52 186.716C28.7467 186.547 28.9364 186.34 29.093 186.093C29.2496 185.846 29.3568 185.565 29.4186 185.252L31.3889 185.264C31.3147 185.776 31.1581 186.258 30.9108 186.707C30.6676 187.157 30.3461 187.553 29.9545 187.895C29.5629 188.237 29.1012 188.505 28.5736 188.695C28.046 188.885 27.4607 188.983 26.8218 188.983C25.8737 188.983 25.0287 188.765 24.2826 188.324C23.5366 187.883 22.9512 187.252 22.5225 186.423C22.0939 185.594 21.8795 184.6 21.8795 183.442C21.8795 182.283 22.0939 181.285 22.5267 180.457C22.9595 179.628 23.5448 178.997 24.2909 178.556C25.037 178.114 25.8778 177.896 26.8177 177.896C27.4195 177.896 27.9759 177.983 28.4912 178.147C29.0064 178.317 29.4681 178.564 29.872 178.89C30.276 179.215 30.6099 179.611 30.8696 180.081C31.1292 180.551 31.3024 181.083 31.3848 181.685H31.3889Z" fill="white"/>
<path d="M35.2635 188.835V178.044H39.3072C40.1357 178.044 40.8324 178.189 41.3971 178.477C41.9618 178.766 42.3863 179.17 42.679 179.685C42.9675 180.205 43.1118 180.807 43.1118 181.496C43.1118 182.184 42.9634 182.786 42.6708 183.293C42.3781 183.801 41.9453 184.192 41.3765 184.468C40.8076 184.745 40.1069 184.881 39.2784 184.881H36.3971V183.256H39.0146C39.4968 183.256 39.8967 183.19 40.2058 183.054C40.515 182.918 40.7458 182.72 40.8942 182.46C41.0426 182.201 41.1168 181.875 41.1168 181.496C41.1168 181.116 41.0426 180.786 40.8901 180.514C40.7375 180.242 40.5108 180.036 40.2017 179.892C39.8925 179.751 39.4927 179.677 39.0063 179.677H37.2174V188.835H35.2635ZM40.8365 183.949L43.5075 188.839H41.327L38.7054 183.949H40.8365Z" fill="white"/>
<path d="M56.6279 183.442C56.6279 184.605 56.4094 185.598 55.9766 186.427C55.5438 187.256 54.9544 187.887 54.2083 188.328C53.4622 188.765 52.6172 188.988 51.6733 188.988C50.7293 188.988 49.8843 188.769 49.1382 188.328C48.3922 187.887 47.8027 187.252 47.3699 186.427C46.9371 185.598 46.7186 184.605 46.7186 183.446C46.7186 182.287 46.9371 181.289 47.3699 180.461C47.8027 179.632 48.3922 179.001 49.1382 178.56C49.8843 178.123 50.7293 177.9 51.6733 177.9C52.6172 177.9 53.4622 178.119 54.2083 178.56C54.9544 178.997 55.5438 179.632 55.9766 180.461C56.4094 181.289 56.6279 182.283 56.6279 183.446V183.442ZM54.6617 183.442C54.6617 182.625 54.5339 181.933 54.2783 181.368C54.0228 180.803 53.6724 180.378 53.2231 180.085C52.7738 179.793 52.2545 179.652 51.6691 179.652C51.0838 179.652 50.5644 179.797 50.1151 180.085C49.6658 180.374 49.3155 180.803 49.0599 181.368C48.8044 181.933 48.6766 182.621 48.6766 183.442C48.6766 184.262 48.8044 184.951 49.0599 185.516C49.3155 186.081 49.6658 186.505 50.1151 186.798C50.5644 187.087 51.0838 187.231 51.6691 187.231C52.2545 187.231 52.7738 187.087 53.2231 186.798C53.6724 186.51 54.0228 186.081 54.2783 185.516C54.5339 184.951 54.6617 184.262 54.6617 183.442Z" fill="white"/>
<path d="M66.4175 181.013C66.368 180.551 66.1619 180.197 65.7992 179.937C65.4365 179.681 64.9624 179.553 64.3854 179.553C63.9773 179.553 63.6269 179.615 63.3384 179.739C63.0457 179.863 62.8231 180.028 62.6706 180.238C62.514 180.448 62.4357 180.687 62.4316 180.96C62.4316 181.186 62.4851 181.38 62.5882 181.545C62.6912 181.71 62.8314 181.85 63.0127 181.966C63.19 182.081 63.392 182.176 63.6063 182.254C63.8207 182.333 64.0432 182.394 64.2658 182.448L65.2757 182.7C65.6838 182.794 66.0754 182.922 66.4546 183.083C66.8338 183.244 67.1718 183.45 67.4727 183.693C67.7736 183.941 68.0127 184.238 68.1858 184.584C68.3631 184.93 68.4496 185.338 68.4496 185.804C68.4496 186.435 68.2889 186.992 67.9633 187.47C67.6417 187.949 67.1718 188.324 66.5659 188.592C65.9558 188.86 65.2221 188.996 64.3565 188.996C63.4909 188.996 62.7902 188.864 62.1719 188.604C61.5536 188.344 61.0754 187.965 60.7292 187.466C60.3829 186.967 60.1974 186.361 60.1686 185.644H62.0894C62.1183 186.019 62.2337 186.332 62.4357 186.58C62.6376 186.827 62.9056 187.017 63.2353 187.136C63.5651 187.26 63.9319 187.322 64.34 187.322C64.7481 187.322 65.1397 187.256 65.4571 187.128C65.7786 187 66.03 186.819 66.2114 186.592C66.3928 186.361 66.4876 186.093 66.4917 185.784C66.4917 185.503 66.4051 185.268 66.2444 185.087C66.0836 184.906 65.8569 184.749 65.5684 184.625C65.2798 184.501 64.9418 184.39 64.5544 184.291L63.326 183.974C62.4357 183.747 61.7349 183.401 61.2238 182.935C60.7127 182.469 60.453 181.85 60.453 181.079C60.453 180.444 60.6261 179.887 60.9724 179.409C61.3186 178.931 61.7885 178.56 62.3862 178.296C62.9839 178.032 63.6599 177.9 64.4142 177.9C65.1685 177.9 65.8528 178.032 66.4299 178.296C67.007 178.56 67.4604 178.927 67.7901 179.397C68.1199 179.867 68.2889 180.403 68.3013 181.013H66.4216H66.4175Z" fill="white"/>
<path d="M81.8997 183.442C81.8997 184.605 81.6813 185.598 81.2485 186.427C80.8157 187.256 80.2262 187.887 79.4801 188.328C78.7341 188.765 77.889 188.988 76.9451 188.988C76.0012 188.988 75.1562 188.769 74.4101 188.328C73.664 187.887 73.0746 187.252 72.6418 186.427C72.2089 185.598 71.9905 184.605 71.9905 183.446C71.9905 182.287 72.2089 181.289 72.6418 180.461C73.0746 179.632 73.664 179.001 74.4101 178.56C75.1562 178.123 76.0012 177.9 76.9451 177.9C77.889 177.9 78.7341 178.119 79.4801 178.56C80.2262 178.997 80.8157 179.632 81.2485 180.461C81.6813 181.289 81.8997 182.283 81.8997 183.446V183.442ZM79.9377 183.442C79.9377 182.625 79.8099 181.933 79.5543 181.368C79.2988 180.803 78.9484 180.378 78.4991 180.085C78.0498 179.793 77.5304 179.652 76.9451 179.652C76.3598 179.652 75.8404 179.797 75.3911 180.085C74.9418 180.374 74.5915 180.803 74.3359 181.368C74.0803 181.933 73.9525 182.621 73.9525 183.442C73.9525 184.262 74.0803 184.951 74.3359 185.516C74.5915 186.081 74.9418 186.505 75.3911 186.798C75.8404 187.087 76.3598 187.231 76.9451 187.231C77.5304 187.231 78.0498 187.087 78.4991 186.798C78.9484 186.51 79.2988 186.081 79.5543 185.516C79.8099 184.951 79.9377 184.262 79.9377 183.442Z" fill="white"/>
<path d="M85.832 188.835V178.044H92.7405V179.681H87.7859V182.609H92.2664V184.246H87.7859V188.831H85.832V188.835Z" fill="white"/>
<path d="M96.1206 179.685V178.048H104.727V179.685H101.393V188.839H99.4553V179.685H96.1206Z" fill="white"/>
<path d="M123.445 181.685H121.475C121.417 181.364 121.314 181.075 121.166 180.823C121.017 180.572 120.828 180.358 120.601 180.184C120.374 180.011 120.119 179.875 119.834 179.789C119.55 179.698 119.241 179.652 118.911 179.652C118.326 179.652 117.806 179.801 117.353 180.094C116.899 180.386 116.545 180.815 116.289 181.38C116.034 181.945 115.906 182.629 115.906 183.442C115.906 184.254 116.034 184.963 116.294 185.524C116.553 186.085 116.908 186.514 117.357 186.798C117.806 187.083 118.326 187.227 118.907 187.227C119.228 187.227 119.533 187.186 119.814 187.099C120.098 187.013 120.35 186.885 120.576 186.716C120.803 186.547 120.993 186.34 121.149 186.093C121.306 185.846 121.413 185.565 121.475 185.252L123.445 185.264C123.371 185.776 123.214 186.258 122.967 186.707C122.724 187.157 122.402 187.553 122.011 187.895C121.619 188.237 121.157 188.505 120.63 188.695C120.102 188.885 119.517 188.983 118.874 188.983C117.926 188.983 117.081 188.765 116.335 188.324C115.589 187.883 115.003 187.252 114.575 186.423C114.146 185.594 113.932 184.6 113.932 183.442C113.932 182.283 114.146 181.285 114.579 180.457C115.012 179.628 115.597 178.997 116.343 178.556C117.089 178.119 117.93 177.896 118.87 177.896C119.472 177.896 120.028 177.983 120.543 178.147C121.059 178.317 121.52 178.564 121.924 178.89C122.328 179.215 122.662 179.611 122.922 180.081C123.181 180.551 123.354 181.083 123.437 181.685H123.445Z" fill="white"/>
<path d="M136.957 183.442C136.957 184.605 136.739 185.598 136.306 186.427C135.873 187.256 135.284 187.887 134.538 188.328C133.791 188.765 132.946 188.988 132.002 188.988C131.059 188.988 130.214 188.769 129.467 188.328C128.721 187.887 128.132 187.252 127.699 186.427C127.266 185.598 127.048 184.605 127.048 183.446C127.048 182.287 127.266 181.289 127.699 180.461C128.132 179.632 128.721 179.001 129.467 178.56C130.214 178.123 131.059 177.9 132.002 177.9C132.946 177.9 133.791 178.119 134.538 178.56C135.284 178.997 135.873 179.632 136.306 180.461C136.739 181.289 136.957 182.283 136.957 183.446V183.442ZM134.995 183.442C134.995 182.625 134.867 181.933 134.612 181.368C134.356 180.803 134.006 180.378 133.556 180.085C133.107 179.793 132.588 179.652 132.002 179.652C131.417 179.652 130.898 179.797 130.448 180.085C129.999 180.374 129.649 180.803 129.393 181.368C129.138 181.933 129.01 182.621 129.01 183.442C129.01 184.262 129.138 184.951 129.393 185.516C129.649 186.081 129.999 186.505 130.448 186.798C130.898 187.087 131.417 187.231 132.002 187.231C132.588 187.231 133.107 187.087 133.556 186.798C134.006 186.51 134.356 186.081 134.612 185.516C134.867 184.951 134.995 184.262 134.995 183.442Z" fill="white"/>
<path d="M140.889 178.048H143.28L146.483 185.866H146.611L149.814 178.048H152.204V188.839H150.329V181.425H150.23L147.25 188.806H145.848L142.868 181.409H142.769V188.839H140.894V178.048H140.889Z" fill="white"/>
<path d="M156.405 178.048H158.795L161.998 185.866H162.126L165.329 178.048H167.719V188.839H165.844V181.425H165.745L162.765 188.806H161.363L158.383 181.409H158.284V188.839H156.409V178.048H156.405Z" fill="white"/>
<path d="M178.725 178.048H180.679V185.099C180.679 185.87 180.498 186.551 180.135 187.14C179.772 187.73 179.261 188.184 178.606 188.513C177.95 188.843 177.183 189.008 176.306 189.008C175.428 189.008 174.657 188.843 173.997 188.513C173.342 188.184 172.831 187.726 172.468 187.14C172.105 186.555 171.924 185.875 171.924 185.099V178.048H173.878V184.934C173.878 185.384 173.977 185.784 174.174 186.134C174.372 186.485 174.653 186.761 175.015 186.959C175.378 187.157 175.807 187.256 176.301 187.256C176.796 187.256 177.225 187.157 177.587 186.959C177.95 186.761 178.23 186.485 178.428 186.134C178.626 185.784 178.725 185.384 178.725 184.934V178.048Z" fill="white"/>
<path d="M193.746 178.048V188.839H192.006L186.924 181.487H186.833V188.839H184.879V178.048H186.627L191.705 185.404H191.8V178.048H193.742H193.746Z" fill="white"/>
<path d="M199.9 178.048V188.839H197.946V178.048H199.9Z" fill="white"/>
<path d="M203.626 179.685V178.048H212.233V179.685H208.898V188.839H206.961V179.685H203.626Z" fill="white"/>
<path d="M215.225 178.048H217.431L220.069 182.823H220.176L222.814 178.048H225.019L221.095 184.815V188.839H219.145V184.815L215.221 178.048H215.225Z" fill="white"/>
<path d="M243.477 181.685H241.507C241.449 181.364 241.346 181.075 241.198 180.823C241.05 180.572 240.86 180.358 240.633 180.184C240.407 180.007 240.151 179.875 239.867 179.789C239.582 179.698 239.273 179.652 238.943 179.652C238.358 179.652 237.839 179.801 237.385 180.094C236.932 180.386 236.577 180.815 236.322 181.38C236.066 181.945 235.938 182.629 235.938 183.442C235.938 184.254 236.066 184.963 236.326 185.524C236.585 186.085 236.94 186.514 237.389 186.798C237.839 187.083 238.358 187.227 238.939 187.227C239.261 187.227 239.566 187.186 239.846 187.099C240.13 187.013 240.382 186.885 240.609 186.716C240.835 186.547 241.025 186.34 241.181 186.093C241.338 185.846 241.445 185.565 241.507 185.252L243.477 185.264C243.403 185.776 243.247 186.258 242.999 186.707C242.756 187.157 242.435 187.553 242.043 187.895C241.651 188.237 241.19 188.505 240.662 188.695C240.135 188.885 239.549 188.983 238.91 188.983C237.962 188.983 237.117 188.765 236.371 188.324C235.625 187.883 235.04 187.252 234.611 186.423C234.182 185.594 233.968 184.6 233.968 183.442C233.968 182.283 234.182 181.285 234.615 180.457C235.048 179.628 235.633 178.997 236.379 178.556C237.125 178.119 237.966 177.896 238.906 177.896C239.508 177.896 240.064 177.983 240.58 178.147C241.095 178.317 241.557 178.564 241.961 178.89C242.365 179.215 242.698 179.611 242.958 180.081C243.218 180.551 243.391 181.083 243.473 181.685H243.477Z" fill="white"/>
<path d="M256.989 183.442C256.989 184.605 256.771 185.598 256.338 186.427C255.905 187.256 255.316 187.887 254.57 188.328C253.824 188.765 252.979 188.988 252.035 188.988C251.091 188.988 250.246 188.769 249.5 188.328C248.754 187.887 248.164 187.252 247.731 186.427C247.299 185.598 247.08 184.605 247.08 183.446C247.08 182.287 247.299 181.289 247.731 180.461C248.164 179.632 248.754 179.001 249.5 178.56C250.246 178.119 251.091 177.9 252.035 177.9C252.979 177.9 253.824 178.119 254.57 178.56C255.316 178.997 255.905 179.632 256.338 180.461C256.771 181.289 256.989 182.283 256.989 183.446V183.442ZM255.027 183.442C255.027 182.625 254.899 181.933 254.644 181.368C254.388 180.803 254.038 180.378 253.589 180.085C253.139 179.797 252.62 179.652 252.035 179.652C251.449 179.652 250.93 179.797 250.481 180.085C250.031 180.374 249.681 180.803 249.425 181.368C249.17 181.933 249.042 182.621 249.042 183.442C249.042 184.262 249.17 184.951 249.425 185.516C249.681 186.081 250.031 186.505 250.481 186.798C250.93 187.087 251.449 187.231 252.035 187.231C252.62 187.231 253.139 187.087 253.589 186.798C254.038 186.51 254.388 186.081 254.644 185.516C254.899 184.951 255.027 184.262 255.027 183.442Z" fill="white"/>
<path d="M269.784 178.048V188.839H268.044L262.962 181.487H262.871V188.839H260.917V178.048H262.665L267.743 185.404H267.838V178.048H269.784Z" fill="white"/>
<path d="M273.984 188.835V178.044H280.893V179.681H275.938V182.609H280.419V184.246H275.938V188.831H273.984V188.835Z" fill="white"/>
<path d="M284.747 188.835V178.044H291.762V179.681H286.701V182.609H291.4V184.246H286.701V187.19H291.804V188.827H284.747V188.835Z" fill="white"/>
<path d="M295.835 188.835V178.044H299.879C300.707 178.044 301.404 178.189 301.968 178.477C302.533 178.766 302.958 179.17 303.25 179.685C303.539 180.205 303.683 180.807 303.683 181.496C303.683 182.184 303.535 182.786 303.242 183.293C302.949 183.801 302.517 184.192 301.948 184.468C301.379 184.745 300.678 184.881 299.854 184.881H296.973V183.256H299.59C300.076 183.256 300.472 183.19 300.781 183.054C301.09 182.918 301.317 182.72 301.47 182.46C301.622 182.201 301.692 181.875 301.692 181.496C301.692 181.116 301.618 180.786 301.465 180.514C301.313 180.242 301.086 180.036 300.777 179.892C300.468 179.751 300.068 179.677 299.582 179.677H297.793V188.835H295.839H295.835ZM301.408 183.949L304.079 188.839H301.898L299.277 183.949H301.412H301.408Z" fill="white"/>
<path d="M307.558 188.835V178.044H314.573V179.681H309.512V182.609H314.211V184.246H309.512V187.19H314.615V188.827H307.558V188.835Z" fill="white"/>
<path d="M327.512 178.048V188.839H325.773L320.691 181.487H320.6V188.839H318.646V178.048H320.394L325.472 185.404H325.567V178.048H327.512Z" fill="white"/>
<path d="M340.946 181.685H338.976C338.918 181.364 338.815 181.075 338.666 180.823C338.518 180.572 338.328 180.358 338.102 180.184C337.875 180.007 337.619 179.875 337.335 179.789C337.051 179.698 336.741 179.652 336.412 179.652C335.826 179.652 335.307 179.801 334.854 180.094C334.4 180.386 334.046 180.815 333.79 181.38C333.535 181.945 333.407 182.629 333.407 183.442C333.407 184.254 333.534 184.963 333.794 185.524C334.054 186.085 334.408 186.514 334.858 186.798C335.307 187.083 335.826 187.227 336.408 187.227C336.729 187.227 337.034 187.186 337.314 187.099C337.599 187.013 337.85 186.885 338.077 186.716C338.304 186.547 338.493 186.34 338.65 186.093C338.807 185.846 338.914 185.565 338.976 185.252L340.946 185.264C340.872 185.776 340.715 186.258 340.468 186.707C340.224 187.157 339.903 187.553 339.511 187.895C339.12 188.237 338.658 188.505 338.131 188.695C337.603 188.885 337.018 188.983 336.379 188.983C335.431 188.983 334.586 188.765 333.84 188.324C333.093 187.883 332.508 187.252 332.079 186.423C331.651 185.594 331.436 184.6 331.436 183.442C331.436 182.283 331.651 181.285 332.084 180.457C332.516 179.628 333.102 178.997 333.848 178.556C334.594 178.119 335.435 177.896 336.375 177.896C336.976 177.896 337.533 177.983 338.048 178.147C338.563 178.317 339.025 178.564 339.429 178.89C339.833 179.215 340.167 179.611 340.426 180.081C340.686 180.551 340.859 181.083 340.942 181.685H340.946Z" fill="white"/>
<path d="M344.816 188.835V178.044H351.832V179.681H346.77V182.609H351.469V184.246H346.77V187.19H351.873V188.827H344.816V188.835Z" fill="white"/>
</g>
<defs>
<clipPath id="clip0_1_1808">
<rect width="384" height="189" fill="white"/>
</clipPath>
</defs>
</svg>
